<svg id="Calque_1" data-name="Calque 1" xmlns="http://www.w3.org/2000/svg" viewBox="0 0 1461.82 1461.82"><defs><style>.cls-1{fill:none;stroke:#000;stroke-miterlimit:10;stroke-width:30px;}</style></defs><title>logo</title><path d="M1776.06,889.34c1.22,0-.28-3.7-0.31-4.44C1774.12,886.27,1776.4,890.32,1776.06,889.34Z" transform="translate(-660.25 -579.13)"/><polygon points="1099.61 324.14 1099.51 322.48 1097.8 327.08 1099.61 324.14"/><path d="M1742.29,907.88c3.39,6.14,6.08-2.76,9.83-1.25L1753,908v-5.66C1749.46,904.18,1745.45,909,1742.29,907.88Z" transform="translate(-660.25 -579.13)"/><path d="M1729.25,896.05c1.23,2.42-1.45,2.72,2.38.25a5.23,5.23,0,0,1-.56-0.55A5.9,5.9,0,0,1,1729.25,896.05Z" transform="translate(-660.25 -579.13)"/><path d="M1731.07,895.75c1.79-.65-1.76-1.85,0,0h0Z" transform="translate(-660.25 -579.13)"/><path d="M1722.95,899.39l1.84-2.91c-0.89-1.39-3.13-1.18-2.61-2.49C1720,895.88,1720.9,897.26,1722.95,899.39Z" transform="translate(-660.25 -579.13)"/><path d="M1721.86,904.79l1-1.29C1722.49,902.92,1722.1,902.78,1721.86,904.79Z" transform="translate(-660.25 -579.13)"/><path d="M1725,900.77l-2.15,2.73c0.62,1,1.2,3.1,1-1.05C1724.19,904.45,1724.24,902.44,1725,900.77Z" transform="translate(-660.25 -579.13)"/><path d="M1726.79,901.39c1.73,1.09,3.72,1.54,1.86,4.44C1733.08,903.74,1731.2,899.28,1726.79,901.39Z" transform="translate(-660.25 -579.13)"/><path d="M1743.17,914.93l2.34,1.44,1-2.63C1746,915,1742.52,912.9,1743.17,914.93Z" transform="translate(-660.25 -579.13)"/><path d="M1707,899.73c0.19,1.44,1.73,3.55,2.36,5.3l1.4-2.05C1709.57,902.24,1707.6,901.78,1707,899.73Z" transform="translate(-660.25 -579.13)"/><path d="M1709.32,905l-2.11,3.07C1709.7,907.8,1709.85,906.54,1709.32,905Z" transform="translate(-660.25 -579.13)"/><polygon points="1063.02 333.09 1066.17 326.9 1062.18 333.37 1063.02 333.09"/><polygon points="1036.42 322.92 1037.16 319.29 1035.63 324.87 1036.42 322.92"/><path d="M1690,904.23c0.49-3-2.62-4.21-1.82-6.15-1.74.91-2.77,3.6-3.71,6C1685.68,902.58,1687.36,902.5,1690,904.23Z" transform="translate(-660.25 -579.13)"/><path d="M1682.75,907.7a17.73,17.73,0,0,0,1.69-3.6A9.16,9.16,0,0,0,1682.75,907.7Z" transform="translate(-660.25 -579.13)"/><path d="M1702.45,908.52c-0.41-.8-1.35-2.93-3.09-3.5l2,3.7Z" transform="translate(-660.25 -579.13)"/><path d="M1701.45,908.84l-0.07-.12c-1.17.19-2,.3-2.34,0.34C1699.34,909,1700.06,908.95,1701.45,908.84Z" transform="translate(-660.25 -579.13)"/><path d="M1702.73,908.47l-0.27,0C1702.65,908.88,1702.74,909,1702.73,908.47Z" transform="translate(-660.25 -579.13)"/><path d="M1715.29,910.41c-1,2.6-3.78,5.78.26,8.36C1716,915.79,1713.72,914.32,1715.29,910.41Z" transform="translate(-660.25 -579.13)"/><path d="M1705.24,913.1l3.09,0.21c-0.31-1-1.2-2.43-.68-3.72Z" transform="translate(-660.25 -579.13)"/><polygon points="1043.89 335.57 1044.99 333.97 1043.85 333.89 1043.89 335.57"/><path d="M1688.53,910.26c-0.84,2-2.16,2.48-3.63,3.11a11.86,11.86,0,0,0,5.24,0C1690.07,912.11,1690.26,909.71,1688.53,910.26Z" transform="translate(-660.25 -579.13)"/><path d="M1694.89,909.94c-0.06.11-.16,0.18-0.22,0.29C1694.92,910.52,1695.08,910.6,1694.89,909.94Z" transform="translate(-660.25 -579.13)"/><path d="M1669.77,916.81l0.41,0.67-0.1-.7Z" transform="translate(-660.25 -579.13)"/><path d="M1690.59,914.08c1.42,0.48,1.93-.67,2.34-2.05a8.23,8.23,0,0,1-2.79,1.38C1690.17,914,1690.23,914.37,1690.59,914.08Z" transform="translate(-660.25 -579.13)"/><path d="M1679,910.53a14.78,14.78,0,0,0,2.64,1.68C1680.7,911.11,1679,909.45,1679,910.53Z" transform="translate(-660.25 -579.13)"/><path d="M1694,909.23a1.13,1.13,0,0,1,.14-0.22C1693.53,908.25,1693.68,908.66,1694,909.23Z" transform="translate(-660.25 -579.13)"/><path d="M1694,909.23a10.53,10.53,0,0,0-1.07,2.8,6.63,6.63,0,0,0,1.74-1.8A6,6,0,0,1,1694,909.23Z" transform="translate(-660.25 -579.13)"/><path d="M1670.89,943.35c-0.6-3.73,1.92-7.87,5.65-4.56,2.17-3.39-2.41-15.08-6.35-21.31,0.28,1.63.61,3.11-1.75,5.92,1.45,1.79,7.4,3.28,5.74,7.15-3.37,2.75-3.4-.6-5.68-2.14,2.6,4.24-3.34,7.76-1,14.33l2.81-3.12C1670.58,940.65,1669.74,942.6,1670.89,943.35Z" transform="translate(-660.25 -579.13)"/><path d="M1675.69,916.64l1.07-.72c-1.48-.34-2.77-1.6-5.19-4.08-1.54,2.23-1.64,3.69-1.49,4.95L1676,916Z" transform="translate(-660.25 -579.13)"/><path d="M1682,914.68c0,4.22-2.41,6.57.31,10.5,3.38-1.08,1.64-3.91,3.3-6.12-5.32,2.29,1.07-2.6-3.45-3.93a8.11,8.11,0,0,1,2.74-1.75,14.92,14.92,0,0,1-3.28-1.16l0.18,0.22,0,0v0.06c0.35,0.44.5,0.73,0.17,0.5a0.2,0.2,0,0,1-.1.11,9.28,9.28,0,0,1,.1,1.57c-1.79-.45-0.49-1-0.1-1.57,0-.2,0-0.4-0.07-0.61l0,0-5,3.48C1678.06,916.21,1679.51,915.74,1682,914.68Z" transform="translate(-660.25 -579.13)"/><path d="M1714.69,928.08a2.12,2.12,0,0,1-.41-0.88C1714,927.77,1714,928.14,1714.69,928.08Z" transform="translate(-660.25 -579.13)"/><path d="M1711.81,926.23c0.27-.66.22-2.33,1.64-2.24,1.44,0.92.46,1.91,0.84,3.21,0.54-1.25,2.08-3.54-.89-4.87l-0.26.64c-2.58-.82-6.66-5.1-6.4-5.74A41.74,41.74,0,0,0,1711.81,926.23Z" transform="translate(-660.25 -579.13)"/><path d="M1696.95,921.57l-4.18,3,3.18,2.91-0.61-2.05C1698.18,925.67,1697,923.24,1696.95,921.57Z" transform="translate(-660.25 -579.13)"/><polygon points="1008.55 335.8 1008.21 331.44 1006.88 338.01 1008.55 335.8"/><polygon points="1002.65 337.66 1002.05 333.93 1000.96 336.5 1002.65 337.66"/><path d="M1327,1027.38l-1.2,1.3A4.12,4.12,0,0,0,1327,1027.38Z" transform="translate(-660.25 -579.13)"/><path d="M1337.13,1025.84L1337,1024C1336.76,1025.06,1336.7,1025.84,1337.13,1025.84Z" transform="translate(-660.25 -579.13)"/><path d="M1514,946.81c-2.64-3.1-5.87-8.07-4.86-3.94l1.36,4A2.74,2.74,0,0,1,1514,946.81Z" transform="translate(-660.25 -579.13)"/><path d="M1415.44,989.57l0.81,1.13,0.67-4.14C1416.48,987.51,1416,988.51,1415.44,989.57Z" transform="translate(-660.25 -579.13)"/><path d="M1417,1006.67l-3.13-2.15A9.74,9.74,0,0,0,1417,1006.67Z" transform="translate(-660.25 -579.13)"/><path d="M1272.59,1041.15l-1,4.42C1274.19,1045.13,1272.72,1043.22,1272.59,1041.15Z" transform="translate(-660.25 -579.13)"/><path d="M1601.35,931.32a8.67,8.67,0,0,0-4.78-1.58C1599.1,931.65,1601.47,934.81,1601.35,931.32Z" transform="translate(-660.25 -579.13)"/><path d="M1323.31,983.48a3.12,3.12,0,0,0-.74,2.68A2.56,2.56,0,0,0,1323.31,983.48Z" transform="translate(-660.25 -579.13)"/><path d="M1591.59,930.74a12.36,12.36,0,0,0,1.1.77,6.3,6.3,0,0,1,3.88-1.77C1594.69,928.32,1592.72,927.59,1591.59,930.74Z" transform="translate(-660.25 -579.13)"/><path d="M1068.41,1058a4.65,4.65,0,0,1-.48-0.48C1067.9,1058.11,1068.11,1058.13,1068.41,1058Z" transform="translate(-660.25 -579.13)"/><path d="M1009,1017a8,8,0,0,1,2.39-.3C1011,1016.44,1010.28,1016.46,1009,1017Z" transform="translate(-660.25 -579.13)"/><path d="M1638.28,920.31c1.22-.54.11-0.49,0,0h0Z" transform="translate(-660.25 -579.13)"/><path d="M1647.94,935a4,4,0,0,0-.09,2.08A5.05,5.05,0,0,1,1647.94,935Z" transform="translate(-660.25 -579.13)"/><path d="M1583.68,958.51h-0.11C1584.1,959.24,1584,959.1,1583.68,958.51Z" transform="translate(-660.25 -579.13)"/><path d="M1640.6,921.73a5.92,5.92,0,0,0-1.89-.85A6.28,6.28,0,0,0,1640.6,921.73Z" transform="translate(-660.25 -579.13)"/><path d="M1639.93,919.88c0.48,0.09.85,0.11,1.2,0.15C1641.15,919.32,1640.91,918.93,1639.93,919.88Z" transform="translate(-660.25 -579.13)"/><path d="M1636.55,920.91a4.25,4.25,0,0,1,2.16,0,0.71,0.71,0,0,1-.42-0.58C1637.92,920.46,1637.41,920.65,1636.55,920.91Z" transform="translate(-660.25 -579.13)"/><path d="M1176.79,1039.55a3.66,3.66,0,0,1-.32-0.36C1175.31,1041,1175.86,1040.71,1176.79,1039.55Z" transform="translate(-660.25 -579.13)"/><path d="M1487.87,995.16a2.19,2.19,0,0,0,.11-0.22l-0.22-.11Z" transform="translate(-660.25 -579.13)"/><path d="M1483.75,999c1.08-5.42,2.32-5,4-4.2l-3.65-11.46Z" transform="translate(-660.25 -579.13)"/><path d="M1303.12,1032.78l3.93,3.09c-2.94,6.71-6.19,5.14-2.2,9.75-1.73-12.83,12.62-3.54,10.84-16.36l2.64,2.3c-0.64,0-.61.75-1.25,0.73,5.29,5.36,1.51-9.77,7.26-8.91,2.06,0.64,3.71,2.26,2.69,4l3.65-3.9c1.27,0,1.36,2.3.1,2.27l6.24-2.16,0,0.38a43.35,43.35,0,0,1,2.86-7.12c2,1.54-.58,1.5.12,3l3-3.72c2,3-.33,6.77-2.87,6.74,5.59,12.13,2.37-3.73,10.86,2.42l-3.06,2.21c3.45,6.84,5.6,3.75,10.19,7.59-1.32-2.19-9.61-10-6.33-13.86,1.26,0.77,2.77,1,4.39-2,0.83,4.53,2.66,3.05,5.15,2.34l0.9,6c2.44-2.22,1.67-5.24,2.81-8.23,3.17,0,4.63,4.58,6,8.37,5.07,0.08-4.71-6.85.88-9,4.48,1.57,6.91-1.39,11.14-5.86,3.22,1.56.16,3.76,1.49,5.29l1.67-5.24c0.64,0,.7,1.51.73,2.27,1.8-2.24-.9-6,2.16-8.26-0.28-6.77,8.6,8.43,11.41.18,1.33,1.52.16,3.77,0.89,6,4.81-5.94,4.24-4.45,7.72-11.91l4.68,3.23c-3.73-4-.95-10,1.54-14.95-1.43-2-2.65-3.74-3.41-4.54l4.65-4.15c0.81,0.87.65,3,.24,5.69,0.27-.56.52-1.11,0.7-1.61,2.26,1.88,1.91,5.52,1.17,9.11-0.85-1.07-1.7-2.22-2.54-3.37-0.64,3.88-1.12,8.13-.23,11.59a3.71,3.71,0,0,1,1.42-1.93,5,5,0,0,0,0,2.54c0.29,0.6.6-.83,1.18-2.51l2.38,6.48-0.19-2.71,7.58,3c3.68-7.61,6.16-18.28,13.43-22.42-1,5.25,1,8.08,2,13.92-3.22-5.77-5.54,3.69-9.78,3.16,2.21,0.27,2.25,3.12,1.89,4.19l6.17-6.88c0.69,4.78,2.16,3.29,4.38,4.92-3.09-9.14,4.23-7.21,6.63-10.61,0.74,3.12.62,6.47-3.07,6.34,5.19,6.37,3.1-11.94,8-6.62-0.86.23-1.41-.17-1.47,1.5,1.53-3.17,6.89-1.83,6.21,1.13l-0.86.22c6,0.08,17.58-3.07,17-11.2,0.24,1,1,9.75.91,11.43l5.48-28.69c0.32,7,6.74,22.71,2.64,27.44,1.55,0.73,3.46,1.56,5.92-1.38-1.11-.81-4.12-9.49-2.95-10.34,4.89,7,3.17,3.64,8.68,9.37-1.67-1.22-2-12.24.24-12.3-0.06,1.67,2.1,10.57,1.49,11.84l3.63-11.55c-1,2.15,1.37,9,3.15,11.74-0.95-2,4.82-.67,6.1-2l-2.79-2c6.54,0.46,3.47-15.94,9.76-16.52-0.35,2.32.59,13.74,4,14.49,0.46-5.67,1.63-27.14,6.32-32.3l1.62,2.89,3.54-4.28c-1.1,8.6-5.28,27-8.09,34.43,2.79,2,1.32,3.52,4.77,2.6,1.77,2.66-1.1,4.74-2.1,5.1l8.5,0.37c-1.53-6.24,5.07-7.46,3.79-12.66l-7.65,8.16c-1.51-6.23,1.82-18.81,7.79-18.78,1.93,2.23,1,11.42,1.49,13.49,0.35-2.31,4.71-5.16,5.53-3.73l-1.82,3.82c3.66,1.77,3.69-9.33,8.68-4,1.41,0.15,5.51,7.36,5,3.59-3.53-6.78-8.14-28.92-7.71-34.58,0.56,0.41,8.26,5.55,10.45,8.8,3.26,5.21-.74,14,2,18.53a10.34,10.34,0,0,1,.94-4.87c1.68,1.2.43,5.44,3.33,4.08-0.71-6.48,6.29-.64.41-5.67,2.62-2.39,3.41.71,6.85-.24-1.9-3.91.43-14.62,3-17a12.79,12.79,0,0,0,1.73,4.54c6.19-.62,10,1.64,15.7.58,0.83,1.44,3.94,2.77,3.32,5.74,0.59-1.29.91-3.6,2.63-4.11,4.49,4.82-3.73,1.65.17,7.74-0.52-3.75,3.51-6,5.53-8.84-1.92-5.56-6,.07-8,2.88-1.58-7.88,1.11-17,6.26-21.85,4.29-2.9,3.06,4.68,3.65,3.4,9.1-.4,4.67-15.28,13.13-11.11,3.94,4.41,2.21,10,3.6,13.44-3.43,2.7-6.52-2-9.07-1.22l3.67,1.71c-0.87,1.92-3.16,3.73-4.85,2.55,3.36,4,15.07-2.23,22.75.51,0.85-1.94,2.56-4.13,1.15-5.93l-2,1.16c-2.83-3.62,2.85-6.46-.27-7.76,2.27-3.46,4.52-8.62,9.05-7.21l2,5.55c-0.45-1.65-3.38-2.83-4.14-.85,1.13-2.89,7.88,6.39,8.1-1.48l-3.69-3.34c2.26-3.5,4.48-10.3,8.43-9.31-2.86-5.27-.68.83-4.66-5.2,4,7.73-9.19,1.62-3.78,9.49-4.27-7.1-5.21-2.27-10-8.07,0.51,1.86,2,3.34-1.21,3.06a9.49,9.49,0,0,1-.3,1.8,1.43,1.43,0,0,1-.23-0.1c0.08,0.06.14,0.13,0.21,0.19-0.07.31-.07,0.37,0.08,0.06a6.88,6.88,0,0,1,2.14,2.54c-0.56,4.64-5.36,5.55-6.51,8.12-2-.52.29-2.32-1.11-4.13l-1.71,3.85c-1.12-4.14-6.19-6-2.52-9.3l-3.81.6c-2.71-1.89-6-2.19-7.48,0-2-.54-3.54,5.58-2.66,2l-5.4,3.8-0.27-1c-6,.64-10.66,9.4-18.87,3.14-1.76,1.45-3.55,3.14-7.09,2.6l-1.36-3.51c-2.29,1.77-8.31-2.14-8.67,1.86-4.63-9.25-12.72.22-17.52-.66l0.73,4.78c-3.12.32-5.82,2.22-9.29,4.84l1,4.15c-2.65,4.07-9-1.4-14.18,0,0.06-1.67,1.46-1.5,2.57-.7-8-8.32-11.89,9.33-18.82,3.46-1.13,1.79-2.25,1.45-3.43.58a0.5,0.5,0,0,0,.31-0.28,1.75,1.75,0,0,0-.59.06c-0.75-.61-1.55-1.33-2.37-1.88a8.81,8.81,0,0,0,2.06,1.95,10.35,10.35,0,0,0-4.06,2.46l-1.51-4.39a3.53,3.53,0,0,0-.35.2c-1.89-1.38-.89,2.37.58,5.61a10.23,10.23,0,0,0-1.65,3.11c-2.61-7.05-3.8,3.22-7-4.23-0.41,4-7.62,4.33-7.05,12.46-0.24-1-.81-1.44.05-1.66-2-.59-3.94-1.17-5.16,1.37l-1.8-5.6-2.56,8.43c-3-3.07-4.39-4.92-2.8-9.77-4.53,7.83-4.2,3.4-7.89,11l-0.43-3.76c-1.72.45-3.63,5.93-5.23,3-5.17-6.36-19.53,2.49-30.75-2.28,3.9,10.59-5.54-4.07-4.43,4.48-1-2.48-2.71-3.69-1.48-6.23-4.67,3.46-8.43-2.72-10.7,5.05-1.05-2.49.42-4-.38-5.43-0.31.63-1.23,2.54-2,1.09s0.36-2.31,1-3.58c-5.16,1.37-4.27,9.44-3.31,17-3.29-3.07-4.52-2.33-5.56,2.92-1.36-2.28-3.36-4.57-.26-6-1.89,0-11.82-1.59-10.94,4.44-0.85-1.42-2.64,0-3,.79-4.17.38-4.63-.1-8.56,1.19l1.29,0.78c-0.3,7.52-3.06,2.21-6.16,3.66l0-.76c-8.39-3.89-2.77,3.08-11.19-1.56l1.2,4.43c1,9.8-7.54-4.54-11.14-.08l2,2.29c-1.74,3.73-8.87-12-11.43-12.79-0.66-.75.56-1.49,1.17-2.24-7.15-4.61.26,6-4.06,8.22-1.41-3-.36-8.28-3.54-8.32-2-2.3-7.08,11.91-12.36,6.56,1.36,2.29,2.72,4.57.92,6.79-3.1,1.45-10.43-7.69-12,.55a3.83,3.83,0,0,1-.93-1.82c-2.13,2.44-7.48,4.74-8.23,9.19-5-15.14-14.11,10.27-16.55-4.09l-7.49,2.08-0.05-1.5c-5-.11-6.17,3.61-7.3,7.35-1.29-.79-0.69-2.26-0.73-3-7.61-1.69-8.19-1-13,7.16l-1.38-4.56c-1.19,3-11.45-5.64-17.56.88a4.12,4.12,0,0,1,.44-2.21c-3.5,3.35-8.69.82-13-.36s-7.81-1.05-8,7.66l-4.59,4.93c6.91,0.37,0,7.53,3.21,10-2.53,1.38-7.58-4.18-4.44-5.5l0.63,0.78c0-9-8.8-2-9.43-8.08-13.16,2.17-26.61-1.17-39-.25l2.17,6.77-4.37.08c-1.31-1.49-2.09-5.26,1-5.31-2-3.74-4.82,3.83-4.76,5.34-6.33-2.21,1.53-8.32-.34-8.3l-2.45.77,0.65,0.75c-1.75,3-1.63,6.06-5.37,6.09-2.48-1.15-1.62-4.16-2.56-4.34,0-.49-0.37-0.69-1.43-0.06l-5.49-.1,2.68,5.28c-2.17,2.92-5.16.18-2.08,6.16-4.56-9.19-20.69-1.71-23.21-4.52-3.09,4.24-6.47,4.41-10.65,4.22,1.11,1.07,2.16,7.2-1.5,6.7,0.47-12.82-6.95-5.12-10.39-14.11,2.95,5.94-10.07,2.1-5.54,10.5-3.05-.88-0.45-4.76-2.88-7.65-3.42,2.65-7.39,2.07-11.56,1s-8.57-2.47-12.93-1.46c-0.08,1.68,1.5,4.19-.3,6.75l-4.94-8.22c-1.7.88-1.28,9.72-4.64,4,0.49,1.39,1.23,3.5.08,4.07-8.75-3.82-17.49-1.95-26.33-1.08a44.12,44.12,0,0,1-13.28-.24,27.15,27.15,0,0,1-13.17-6.69c2.35,3.26.77,3.57-1,3.69,1.17,0.78-.05,4.14.16,6.41l-7.28-6.36c-1.41,6.28-7.86.31-8.72,6.32l2.34-1c-3.23,7.07,4.11,15.87,3.55,25,3.59-8,9.21,12.06,15.07.52,1.27,1.87-1.1,2.93-.42,5.05,1.48-3.91,3.25-4.7,6.53-3l-0.37,1a24.87,24.87,0,0,1,11.37,1.37,120.86,120.86,0,0,0,12.29,3.89l-0.84-4.5c2.24,0.57,2.74,2,3.8,3.09,2.43-6.88-6.28-.29-4.07-7.87,3.12,9.18,15.68-.21,18,10.19,3.44-.06-1.15-5.19,2.28-5.24l1,2.79,0.76-3.67c2.27,0.53,3.52,4,3.68,6.41-0.56-.27-1.54.72-2.12,0.94,3,3.23,8.22-1.4,9.27-.36l-3.37-1.63c4.65-1.47,9.86-1.46,15-1.79s10.27-1.15,14.63-4.24l-0.8-2.09c6.66-4.32,5.66,2,13.12-.27l-0.24.52c1.38-2.21,3.33-3.39,5.41-3.31-1.74,2.62,3.92,4.58,1.61,7.51,7.19-4.75,3.48-3.58,7.83-11.82l1.4,3.44c1.44-3.3,1.45-5,5.13-6.22-2.85,3.27,2.83,5.17-.32,9.45,8.57,7.07,11.1-8.72,15.71,2.2,2.77-10.07-7.32-4.79-5.47-7.06-2-3,2.36-7.54,4.91-6.79,2.52,0,5.4,12.09,11.77,11.3-0.64,0-.61.76-1.25,0.78,2.63,2.24,4.34-3.83,7.66-.09,1-6,3.83,0,3.53-7.59l-5.64,2.32c3.12-2.31,5.29-11.35,11.14-7.7a13.28,13.28,0,0,1-2.65,5c1.82,2,2.9-1.8,4.79.29,0.34,7.56-6.89,2.41-9.86,8.47,2,3,6.15-6.11,5.22,2.2,1.47-10.62,6.43.62,9.87-7.74l0.22,4.53c0.6-.78,1.78-3.06,3-3.08l-1.62,6.08c2.93-5.34,7.24,3.56,10.29.47-7,1-2.21-5.22-5.56-8.15,7.9-7,6.36,11.19,15.81,7.82-1.24.81-5.26-2.07-3.47-4.4a12.17,12.17,0,0,1,6,4.3c6.3-1.76-1.58-4.49.8-7.59,2.89,5.18,2.86-2.63,5.42-4.74l0.63,4.56c7.68,1.94.65-9.75,7.66-7.11l-1.9,6.69,3.19-2.1v5.28c3.19-4.36,4.47-3.54,8.33-2.6-1.31-3.08-.71-8.32,2.47-8.94,2.58,2.38-.59,4.5,3.86,3.19-0.6,3-1.21,6.73-3.81,2.83,0,1.51-.6,3-0.6,4.5,2.82,2.76,6.06-.16,7.7-0.45a2.8,2.8,0,0,1-1.95-.8l5.66-7.29c1.3,1.55.68,3,.07,4.51,1.26-.7,1.87-2.92,3.77-3.61,0.06,3.77.77,7.57-1.76,9.73l5.67-5.07c0.67,1.54,3.92,3.91,3.31,5.39,3.84,1.62,7.42-8.51,12.49-6.4a3.38,3.38,0,0,1,1.39-2.2c4.46,0.13,9.05,4,13.33-1.9l4,6.12c3.76-2.18-5.34-7.66.91-11.28,4.35-2.91,2.72,5.33,4.69,6.89,1.78-3.73,4.68-11.2,9.94-6.58C1305.67,1032.84,1304.37,1032.06,1303.12,1032.78Zm48.59-11.6c-0.78,1.12-2.15,4.39-3.32,1.84C1348.55,1017.64,1349.83,1020,1351.71,1021.18ZM1424.2,997c-0.44,1.62-1.66,1.08-3.2-.42C1421.83,996,1422.87,996,1424.2,997ZM1625,926.92a1.34,1.34,0,0,0-.05.24C1622.5,925.84,1623.38,926.37,1625,926.92Zm4.75,1a2.1,2.1,0,0,0-.17-1.93c-0.06,1.2-1,1.48-2.2,1.39C1627.94,928.55,1628.67,929.24,1629.75,928Zm-470.05,82.21,1,1.11C1158.87,1012.79,1159.29,1011.55,1159.7,1010.17Z" transform="translate(-660.25 -579.13)"/><path d="M1416.87,1004.68a9.75,9.75,0,0,1-.85-2.39A2.06,2.06,0,0,0,1416.87,1004.68Z" transform="translate(-660.25 -579.13)"/><path d="M1272.77,1040.33a1.07,1.07,0,0,0-.16,0,4.08,4.08,0,0,0,0,.84Z" transform="translate(-660.25 -579.13)"/><path d="M1569.58,979.69a5.07,5.07,0,0,1-2.19-2A2.07,2.07,0,0,0,1569.58,979.69Z" transform="translate(-660.25 -579.13)"/><path d="M1651.06,915.43l-2.51,1.77c1.29-.51,2,0.37,2.81.93C1651.07,917.09,1650.21,915.69,1651.06,915.43Z" transform="translate(-660.25 -579.13)"/><path d="M1681.36,937.83c0.28-.64.85-0.25,1.13-0.9l-0.59-2.06C1680.19,935.4,1679.36,937.35,1681.36,937.83Z" transform="translate(-660.25 -579.13)"/><path d="M1656.89,929.8c1,3.73,2.52,2.08,4.31.94a0.69,0.69,0,0,1-.34.08C1660.26,925.4,1658.58,927.62,1656.89,929.8Z" transform="translate(-660.25 -579.13)"/><path d="M1661.62,930.5a3.18,3.18,0,0,1,1.78-.5C1663.16,927.84,1662.58,929.73,1661.62,930.5Z" transform="translate(-660.25 -579.13)"/><path d="M1634.73,924.31c1.13,0.78-.44-5,0.4-3.53C1635.15,915.75,1630.22,927.89,1634.73,924.31Z" transform="translate(-660.25 -579.13)"/><polygon points="1000.96 362.77 999.24 358.26 998.96 362.25 1000.96 362.77"/><path d="M1645,941.81l3.4,0.62a1.76,1.76,0,0,1,.49-1.77C1647,940.92,1644.64,940.44,1645,941.81Z" transform="translate(-660.25 -579.13)"/><path d="M1648.91,940.66a2.67,2.67,0,0,0,2.35-1.32A5.63,5.63,0,0,0,1648.91,940.66Z" transform="translate(-660.25 -579.13)"/><polygon points="996.99 365.09 995.85 364.32 993.57 364.45 996.99 365.09"/><path d="M1611.18,947.89l-3.15,2c0,1.68,1.1,2.47,2.25,1.57C1610.87,950.22,1612,949.34,1611.18,947.89Z" transform="translate(-660.25 -579.13)"/><path d="M1624.15,958.61c-1.13-.78-1.4-1.81-2.24-3.24l1.08,5.82Z" transform="translate(-660.25 -579.13)"/><path d="M1614.41,962c0,1.68-4.06,5.63.23,4.38C1614.67,964.71,1617.84,962.67,1614.41,962Z" transform="translate(-660.25 -579.13)"/><polygon points="901 385.63 901.85 385.39 899.92 375.87 901 385.63"/><path d="M1519.76,996.05c4.5,1.55-.1-6.06,4.11-3.88,0.55-2.43-3.44-1.78-2.81-3.91C1519,991.09,1517.49,990,1519.76,996.05Z" transform="translate(-660.25 -579.13)"/><path d="M1521.06,988.26a10.18,10.18,0,0,0,1-1.68A4.82,4.82,0,0,0,1521.06,988.26Z" transform="translate(-660.25 -579.13)"/><polygon points="339.24 432.57 336.65 430.51 338.29 433.79 339.24 432.57"/><path d="M994.33,1018.82l-0.51-6.19-1.68,5.57C992.74,1017.94,993.9,1017.42,994.33,1018.82Z" transform="translate(-660.25 -579.13)"/><path d="M1361.18,1032.14l-0.06-1.5c-0.69-1.51-1.32-1.52-2.6-1.55Z" transform="translate(-660.25 -579.13)"/><polygon points="664.53 454.79 665.17 454.81 663.05 449.5 664.53 454.79"/><path d="M1295.94,1046.18c1.27,0,2.51-1.46,3.78-1.44C1297.21,1046.2,1294.44,1039.36,1295.94,1046.18Z" transform="translate(-660.25 -579.13)"/><path d="M1628.36,1418.7c1.33-.87-1.91-3.27-2.25-3.94C1624.92,1417.26,1629.15,1419.38,1628.36,1418.7Z" transform="translate(-660.25 -579.13)"/><polygon points="956.86 864.34 955.99 862.9 956.3 868.37 956.86 864.34"/><path d="M1600.76,1461c3.29,1.43,4.53-.35,5.55-2.71s1.84-5.22,4.18-6l1.61,0.54-2.7-5.14c-1.45,2.21-2.66,5.16-4,7.74S1602.7,1460.33,1600.76,1461Z" transform="translate(-660.25 -579.13)"/><path d="M1581.15,1461c2.53,1.14-.15,3.63,2.64-1.75a5.22,5.22,0,0,1-.87,0A10.87,10.87,0,0,1,1581.15,1461Z" transform="translate(-660.25 -579.13)"/><path d="M1582.92,1459.18c1.57-2.07-2.79-.2,0,0h0Z" transform="translate(-660.25 -579.13)"/><path d="M1576.23,1469.21l0.43-4.14c-1.65-.48-3.91,1.62-4,0C1571.31,1468.62,1573,1469.06,1576.23,1469.21Z" transform="translate(-660.25 -579.13)"/><path d="M1577.91,1474.88l0.38-2C1577.59,1472.71,1577.12,1472.91,1577.91,1474.88Z" transform="translate(-660.25 -579.13)"/><path d="M1579.12,1468.68l-0.82,4.21c1.16,0.34,2.87,1.73.53-1.8C1580.16,1472.64,1579.17,1470.82,1579.12,1468.68Z" transform="translate(-660.25 -579.13)"/><path d="M1581.28,1467.75c2.36-.49,4.68-1.7,4.23,2.39C1589.05,1464.68,1584.83,1462.21,1581.28,1467.75Z" transform="translate(-660.25 -579.13)"/><path d="M1605.17,1466.66l3.14-.51-0.25-3.12C1608.18,1464.59,1603.48,1465.35,1605.17,1466.66Z" transform="translate(-660.25 -579.13)"/><path d="M1559.85,1483.55c1,1.07,3.74,1.48,5.35,2.44l0.3-3C1563.9,1483.37,1561.63,1484.73,1559.85,1483.55Z" transform="translate(-660.25 -579.13)"/><path d="M1565.2,1486l-0.4,4.52C1567.11,1488,1566.58,1486.82,1565.2,1486Z" transform="translate(-660.25 -579.13)"/><path d="M1583.3,1480.21v-8l-0.36,4.5-0.34,4.49Z" transform="translate(-660.25 -579.13)"/><polygon points="890.55 915.81 889.16 912.09 890.92 918.16 890.55 915.81"/><path d="M1545.74,1502.61c-1.36-2.79-4.9-1.31-5.36-3.52a5.36,5.36,0,0,0-.45,1.74,8.55,8.55,0,0,0,0,1c0,0.31,0,.62.09,0.93a36.65,36.65,0,0,0,.89,3.94,3.29,3.29,0,0,1,1.19-2.5A8.55,8.55,0,0,1,1545.74,1502.61Z" transform="translate(-660.25 -579.13)"/><path d="M1541.72,1510.52a16.27,16.27,0,0,0-.86-3.86A9.51,9.51,0,0,0,1541.72,1510.52Z" transform="translate(-660.25 -579.13)"/><path d="M1560.28,1495.14c-0.87-.3-3-1.25-5.09-0.15l4.14,1.29Z" transform="translate(-660.25 -579.13)"/><path d="M1559.47,1496.32l-0.14,0c-1.06,1.22-1.8,2-2.11,2.39C1557.49,1498.37,1558.15,1497.66,1559.47,1496.32Z" transform="translate(-660.25 -579.13)"/><path d="M1560.52,1494.85c-0.09.1-.16,0.18-0.24,0.29C1560.69,1495.27,1560.84,1495.28,1560.52,1494.85Z" transform="translate(-660.25 -579.13)"/><path d="M1574.22,1485.39c0.37,3.16-.57,8.22,4.89,7C1577.93,1489.4,1574.8,1490.13,1574.22,1485.39Z" transform="translate(-660.25 -579.13)"/><path d="M1565.67,1496.51l3.19-2.56c-0.89-.6-2.57-1-2.78-2.56Z" transform="translate(-660.25 -579.13)"/><polygon points="905.26 919.71 905.42 917.38 904.25 918.34 905.26 919.71"/><path d="M1548.09,1508.68c0.5,2.22-.41,3.66-1.23,5.07a11.2,11.2,0,0,0,2.49-1.61,13.32,13.32,0,0,0,2.08-2.16C1550.6,1508.94,1549.3,1506.88,1548.09,1508.68Z" transform="translate(-660.25 -579.13)"/><path d="M1553.75,1503.09c0,0.15,0,.29,0,0.43C1554.12,1503.55,1554.32,1503.48,1553.75,1503.09Z" transform="translate(-660.25 -579.13)"/><path d="M1536.11,1523.89l0.64,0.44-0.37-.6Z" transform="translate(-660.25 -579.13)"/><path d="M1552.24,1510.15c1.58-.78,1.36-2.13.91-3.62a12.41,12.41,0,0,1-1.72,3.43C1551.8,1510.42,1552.09,1510.67,1552.24,1510.15Z" transform="translate(-660.25 -579.13)"/><path d="M1540.54,1514.67a10.33,10.33,0,0,0,1.5.18,14.88,14.88,0,0,0,1.49-.1,14.44,14.44,0,0,0-2.25-.48C1540.62,1514.16,1540.23,1514.23,1540.54,1514.67Z" transform="translate(-660.25 -579.13)"/><path d="M1552.48,1503.29a1.39,1.39,0,0,1,0-.31C1551.46,1502.89,1551.84,1503.09,1552.48,1503.29Z" transform="translate(-660.25 -579.13)"/><path d="M1552.48,1503.29a10.93,10.93,0,0,0,.67,3.24,9.27,9.27,0,0,0,.56-3A5.24,5.24,0,0,1,1552.48,1503.29Z" transform="translate(-660.25 -579.13)"/><path d="M1546.49,1548.53a6,6,0,0,1-.14-5.41,3.94,3.94,0,0,1,1.91-1.84,5.39,5.39,0,0,1,3.31-.34c0.63-2.24-1.62-5.4-4.7-8.44a72.79,72.79,0,0,0-10.11-8.17c0.88,1.38,1.94,2.57.48,6.29,1,0.51,3.33.45,5.18,0.72s3.57,1,3.44,3.19c-1.23,2.19-2.28,2.47-3.29,2.18s-2.07-1.17-3.54-1.36c2.11,1.4,1.89,3.66,1.55,6.23s-0.64,5.49,1.67,8.11l2.4-4.47C1545.31,1546.07,1544.9,1548.39,1546.49,1548.53Z" transform="translate(-660.25 -579.13)"/><path d="M1541.25,1521.23l0.49-1.1c-1.32.38-3.11-.17-6.15-1.44a7.19,7.19,0,0,0,.79,5.06l0.79-.5c0.45-.3,1.15-0.69,1.7-1.09l1.59-1.09a7.29,7.29,0,0,0,.7-0.51Z" transform="translate(-660.25 -579.13)"/><path d="M1545.26,1516.54a12.35,12.35,0,0,1,1.36,2.56c0.34,0.82.6,1.6,0.93,2.35a6.1,6.1,0,0,0,3.79,3.67,3.48,3.48,0,0,0,.95-2,3.36,3.36,0,0,0-.34-1.67c-0.46-1.07-1.2-2-1.13-3.54-1.64,2.69-1.76,1.91-2.09.8s-0.87-2.63-3.09-1.88a6.79,6.79,0,0,1,.49-1.66,13.78,13.78,0,0,1,.73-1.42,11.47,11.47,0,0,1-1.65.67,13.25,13.25,0,0,1-1.69.33l0.27,0.08v0l0,0c0.54,0.17.82,0.32,0.42,0.32a0.19,0.19,0,0,1,0,.14,9.17,9.17,0,0,1,1,1.22c-1.69.64-1-.54-1-1.22-0.14-.15-0.25-0.31-0.41-0.46l-0.05,0s-0.48,1.42-1,2.69c-0.25.66-.5,1.33-0.72,1.8l-0.36.81C1543,1519.79,1543.87,1518.77,1545.26,1516.54Z" transform="translate(-660.25 -579.13)"/><path d="M1583.48,1501a1.71,1.71,0,0,1-.9-0.41C1582.68,1501.3,1582.83,1501.65,1583.48,1501Z" transform="translate(-660.25 -579.13)"/><path d="M1579.63,1501.89c-0.11-.78-1.12-2.16.31-3.29,1.93-.43,1.53,1.23,2.64,2-0.19-1.5,0-4.75-3.62-3.38l0.1,0.76c-3,1.49-9.44,1.44-9.56.68A36.12,36.12,0,0,0,1579.63,1501.89Z" transform="translate(-660.25 -579.13)"/><path d="M1562.63,1510.9l-2.08,6.08,4.7-.31-1.8-1.16C1566.23,1513.23,1563.69,1512.23,1562.63,1510.9Z" transform="translate(-660.25 -579.13)"/><path d="M1534.48,1522.58l-1-1.93-1.06-1.92s0.43,1.61.71,3.27l0.58,3.33Z" transform="translate(-660.25 -579.13)"/><polygon points="868.99 947.62 867.15 944.32 866.87 947.22 868.99 947.62"/><path d="M1176.15,1468l-1.23-1.94A6,6,0,0,0,1176.15,1468Z" transform="translate(-660.25 -579.13)"/><path d="M1177.8,1482.63l1.89,0.05C1178.57,1482.19,1177.78,1482,1177.8,1482.63Z" transform="translate(-660.25 -579.13)"/><path d="M1360.89,1604.17c-1.29-1.65-2.64-3.71-3.55-5s-1.44-1.5-1.18.61l0.95,4.09A3.27,3.27,0,0,1,1360.89,1604.17Z" transform="translate(-660.25 -579.13)"/><path d="M1243.6,1576.78l-0.47,1.41c1.48-.4,2.9-0.81,4.18-1.21C1246.16,1577,1244.9,1576.9,1243.6,1576.78Z" transform="translate(-660.25 -579.13)"/><path d="M1229.19,1586.18l-0.34-4.63A12.09,12.09,0,0,0,1229.19,1586.18Z" transform="translate(-660.25 -579.13)"/><path d="M1175.39,1389.74l-3.76-3C1171,1390.34,1173.4,1389.12,1175.39,1389.74Z" transform="translate(-660.25 -579.13)"/><path d="M1459.6,1566.91a12.6,12.6,0,0,0-6.21.47C1456.94,1568.18,1460.57,1570.29,1459.6,1566.91Z" transform="translate(-660.25 -579.13)"/><path d="M1220.34,1468.45a3,3,0,0,0-2.66-1.09C1218.51,1468.3,1219.36,1468.78,1220.34,1468.45Z" transform="translate(-660.25 -579.13)"/><path d="M1447.57,1570.49a14.58,14.58,0,0,0,1.52.29,10.14,10.14,0,0,1,4.31-3.4C1450.77,1566.77,1448.2,1566.9,1447.57,1570.49Z" transform="translate(-660.25 -579.13)"/><path d="M1272.38,1141.13a5.38,5.38,0,0,1,.69-0.34C1272.59,1140.51,1272.45,1140.74,1272.38,1141.13Z" transform="translate(-660.25 -579.13)"/><path d="M1341.37,1088.58a13.56,13.56,0,0,1-1,3C1340.88,1091.16,1341.23,1090.29,1341.37,1088.58Z" transform="translate(-660.25 -579.13)"/><path d="M1501.88,1540.5c1.35-1,0-.53,0,0h0Z" transform="translate(-660.25 -579.13)"/><path d="M1516.93,1550.87a3.32,3.32,0,0,0,.39,2.08A4.22,4.22,0,0,1,1516.93,1550.87Z" transform="translate(-660.25 -579.13)"/><path d="M1444.59,1601.17l-0.14.06C1445.28,1601.71,1445.13,1601.61,1444.59,1601.17Z" transform="translate(-660.25 -579.13)"/><path d="M1505,1540.94a7.86,7.86,0,0,0-2.47,0A8.19,8.19,0,0,0,1505,1540.94Z" transform="translate(-660.25 -579.13)"/><path d="M1503.77,1539.39c0.59-.11,1-0.24,1.46-0.35C1505.08,1538.33,1504.71,1538,1503.77,1539.39Z" transform="translate(-660.25 -579.13)"/><path d="M1499.94,1541.82a6.83,6.83,0,0,1,2.59-.92c-0.42-.09-0.66-0.23-0.65-0.39C1501.48,1540.79,1500.91,1541.2,1499.94,1541.82Z" transform="translate(-660.25 -579.13)"/><path d="M1226.1,1273.93a3.93,3.93,0,0,1,.5-0.19C1225.69,1271.47,1225.65,1272.28,1226.1,1273.93Z" transform="translate(-660.25 -579.13)"/><path d="M1314.66,1643.66a2.53,2.53,0,0,0,.27-0.14l-0.25-.21Z" transform="translate(-660.25 -579.13)"/><path d="M1306.94,1644.74c4.4-4.07,5.74-3,7.73-1.43l0.33-6,0.43-6s-2,3.41-4.13,6.78S1306.94,1644.74,1306.94,1644.74Z" transform="translate(-660.25 -579.13)"/><path d="M1174.11,1433.57l-3.83,4.61c-6-5.86-3.75-10.12-9.09-5.74,6.46,0.59,6.67,5.22,6.9,9.86a14.53,14.53,0,0,0,1.34,6.41c1,1.77,2.72,3,6,3l-2.62,3.19c0.1-.9-0.67-1-0.57-1.9-3,3.15-.62,4.22,2.3,5.39a15.85,15.85,0,0,1,4.2,2.18,4.29,4.29,0,0,1,1.61,4.26c-0.77,2.78-2.48,4.9-4.16,3.17l0.58,0.91,1.34,2,2,2.84c0,1.78-2.32,1.65-2.29-.15l0.33,1.43c0.21,0.86.45,2,.77,3.13l1.24,4.52h-0.39a34.41,34.41,0,0,1,3.91,2.2c1.39,0.85,2.7,1.71,3.5,2.29-1.38,2.61-1.57-.87-3,0l4,4.32c-2.88,2.73-6.88-.72-7.1-4.32-5.88,3.56-4.86,4.54-3.06,6s4.49,3.31,2,9.33l-2.74-4.43c-3.21,2.39-3.93,4.44-4.23,6.7s-0.06,4.71-1.48,8.15c1-1,3-4.59,5.34-7.22s5.11-4.36,7.4-2.09c-0.53,1.75-.42,3.92,2.89,6.07-4.41,1.32-2.43,3.85-1.07,7.29l-5.87,1.65a6.74,6.74,0,0,0,4.43,2.42,21.76,21.76,0,0,1,4.75.89,5.93,5.93,0,0,1-1.66,5.4,30.22,30.22,0,0,1-4.8,3.95c0.91,3.61,2.2,1.72,3.8-.08s3.54-3.49,5.63.2a11.07,11.07,0,0,0,2.87,7.63c1.76,2.14,4.39,4,7.55,6.34-0.09,4.62-3.65,1-4.57,3.11l3,0.56,3,0.5c0.31,0.84-1.15,1.28-1.88,1.49,3.11,1.83,5.52-2.58,9.19.78,3.21-1,2.26,2.17,1.75,6s-0.42,8.07,4.35,8.5c-0.67,2.18-3.51,1.44-5.26,3.09,2.14,1.08,3.7,1.81,4.92,2.38s2.1,1,3,1.28c1.8,0.64,3.68,1,8.36,1.62l0.08,3.44,0.07,2.39,0.07,1.07c0.5-3,2.69-4.33,5.46-4.8a39.44,39.44,0,0,1,9.28,0c0.83-2.48,1.6-4.59,1.84-5.76l3.37,1.55c0.83,0.39,1.68.75,2.33,1l1.07,0.43c-0.23,1.25-2.23,2.15-4.9,3a17.72,17.72,0,0,0,1.93,0c-0.09,3.29-3.51,4.73-7.3,5.6,0.34-1.44.73-2.89,1.19-4.35-3.91,1.07-8.15,2.36-10.67,4.91a4.83,4.83,0,0,1,2.79.81,3.75,3.75,0,0,0-2.28,1.18c-0.33.6,1.18,0.35,3.15,0.25l-2,2.84-2,2.86,2.31-1.46,1.69,5.11c0.42,1.29.94,2.53,1.29,3.49l0.61,1.59c4.92,0.24,10.29-.55,15.47-0.78a52.54,52.54,0,0,1,7.76.11,28.4,28.4,0,0,1,3.76.67,22.09,22.09,0,0,1,3.73,1.18c-5.1,2.34-5.48,6-9.22,10.62,0.73-3.4-1.35-4.14-4-4.81s-6.2-1.06-7.85-3.56c1.76,2.56-.6,4.2-1.85,4.38,0,0,.71.2,1.81,0.47l4,0.9,4,0.84c0.53,0.12,1,.2,1.32.25l0.5,0.09c-3.23,3.6-.53,4.19.46,7.49,1-2.22,2.19-3.33,3.4-3.77a5.64,5.64,0,0,1,3.8.26c1.32,0.47,2.68,1.21,4,1.84a15.83,15.83,0,0,0,2,.8,6.59,6.59,0,0,0,2,.25c-1.5,2.81-4.23,5.1-8.06,1.41,0.14,2.3,1,3.16,2.24,3.26s2.82-.63,4.38-1.36c3.17-1.49,6.18-3.15,7,.86-1.14-.53-1.41-1.35-2.68-0.21a6.6,6.6,0,0,1,5.61,2.08c1.41,1.43,2,3.21.62,4l-1.14-.56a34.68,34.68,0,0,0,6.61,3.8,35.2,35.2,0,0,0,8.23,2.68,18.64,18.64,0,0,0,4,.45,15.83,15.83,0,0,0,3.62-.36,6.64,6.64,0,0,0,4.8-3.44,75.42,75.42,0,0,1-5.1,10.31l1-.89c0.63-.56,1.54-1.4,2.6-2.42,2.14-2,4.89-4.77,7.49-7.56s5.08-5.74,6.85-7.93,2.9-3.7,2.9-3.7c-1.3,3.27-1.78,9.2-2.71,14.64s-2.41,10.36-6.43,11.44a9.87,9.87,0,0,0,3.33,1.94,7.09,7.09,0,0,0,2.42.31,12,12,0,0,0,3.17-.7c-1.28-1.22-1.5-10.46.4-10.79,1.73,4.23,2.49,5.4,3.37,6.46l1.66,1.87c0.73,0.82,1.69,1.93,3.14,3.75-1-.86-0.52-3.93.51-6.7s2.62-5.26,4.12-4.93c-0.64,1.57-.66,10.76-2,11.77l1.44-1.53c0.86-.9,2-2.17,3.06-3.47,2.18-2.57,4.2-5.16,4.2-5.16-2,1.84-.77,9.06,1.06,12.17-0.2-.53.15-0.77,0.82-0.84a14.58,14.58,0,0,1,2.75,0c2.17,0.16,4.76.47,5.84-.11l-0.56-.36-1.23-.84-1.76-1.23a6.05,6.05,0,0,0,3-.21,6.52,6.52,0,0,0,2.31-1.61,20.27,20.27,0,0,0,3.26-5.39c0.47-1,.93-2,1.41-3a19,19,0,0,1,1.57-2.69,5.85,5.85,0,0,1,4.64-2.77,24.59,24.59,0,0,0-.15,7.87c0.41,3.25,1.54,6.41,3.91,6.73,0.67-2.88,2-9.76,3.63-16.53a99.43,99.43,0,0,1,2.72-9.75,30,30,0,0,1,1.64-3.88,11.63,11.63,0,0,1,1.9-2.82l2,2.75,2.08-2.34c1-1.18,2-2.41,2-2.41a107.86,107.86,0,0,1-7.47,28.07c-0.63,1.51-1.28,2.92-1.9,4.21s-1.26,2.38-1.85,3.33c3.81,1.91,1.59,3.53,6.62,2.26,2.4,2.52-1.94,4.95-3.48,5.4,0,0,.78,0,2-0.07l4.31-.19,2.31-.11,2-.16,1.94-.16c-1-3.06.89-5.16,2.74-7.13s3.64-3.94,2.69-6.44l-1.62,1.53c-1,.93-2.29,2.16-3.66,3.32l-3.8,3.26-1.27,1.08-0.49.39c-0.93-3.05,0-7.92,1.88-12.1a19.9,19.9,0,0,1,3.67-5.48,8.78,8.78,0,0,1,5.12-2.78c1.32,0.95,1.8,3.78,2,6.63s0.13,5.73.51,6.73c0.49-2.35,6.2-6.34,7.41-5.07L1404,1640c2.56,0.43,3.75-2.12,5-4.37s2.83-4,6.45-2.09c1.85-.28,8.25,5.65,7.17,2-5.64-5.65-14.12-26.62-14.45-32.38l6.06,2c3,1,6.43,2.38,8.05,3.6,2.46,2,2.87,5.6,3.13,9.11s0.36,6.94,2.53,8.7c-0.58-1.64.07-4.3,0.42-5.22,2.35,0.58,1.46,5.29,5,2.85-2-6.16,7.89-3.08-.48-5.8,2.85-3.41,4.45-.6,8.59-2.94-1.6-1.55-2.21-5.23-2.14-8.93s0.84-7.4,2.12-9.13a10.2,10.2,0,0,0,3.15,3.75c7.38-3.19,12.54-2.63,19.16-6.07,1.34,1.07,5.42,1.06,5.38,4.25,0.41-1.52.25-3.93,2.21-5.14,6.57,2.87-4.13,3.18,2,7.55-1.51-3.47,2.82-7.39,4.61-11-3.63-4.68-7.22,2.57-9,6.19-3.78-7.1-2.68-17.21,2.46-24.16,4.53-4.67,4.81,3.33,5.22,1.81,10.95-4.22,2.14-17,13.38-16.47,5.79,2.71,5,8.9,7.46,11.76-3.54,4.09-8.37.78-11.29,2.57l4.86,0.16c-0.61,2.26-3,5-5.3,4.54,5,2.55,17.77-8.46,27.7-9,0.59-2.27,2.15-5.15,0-6.33l-2.15,2c-4.26-2.38,1.95-7.57-2.12-7.55,2-4.36,3.42-10.39,9.15-10.93l3.74,4.6c-0.94-1.43-4.7-1.33-5.16.94,0.35-1.66,3.08-.93,5.53-0.78s4.65-.26,3.75-4.18l-5.21-1.68c0.92-2.2,1.56-5.21,2.54-7.76a11.69,11.69,0,0,1,1.84-3.3,4.43,4.43,0,0,1,2.81-1.67c-4.72-3.88-.52,1.11-6.65-3.07,3.34,2.91.83,4.28-1.48,5.59s-4.52,2.57-.33,5.27c-6.8-5.15-6.66,0-13.8-3.72,1.05,1.62,3.15,2.47-.71,3.52a8.41,8.41,0,0,1,.07,1.9,1.9,1.9,0,0,1-.3,0c0.1,0,.2.07,0.3,0.1,0,0.33,0,.39.11,0a6.59,6.59,0,0,1,3.15,1.6c0.46,4.82-5.15,7.7-5.92,10.73-2.5.32-.19-2.41-2.3-3.61l-1.17,4.53c-2.32-3.62-8.88-3.3-5.19-8.13l-4.48,2.19c-3.71-.73-7.73.34-9.09,3.1-2.52.29-3,7-2.79,3.06l-5.69,6-0.57-.91c-7.1,3.17-10.8,13.76-22.28,11.11-1.81,2.18-3.58,4.62-8,5.6l-2.49-2.87c-2.51,2.81-10.26,1.21-9.73,5.26-3.77-3.71-7.33-2.46-10.71-.37-0.84.53-1.68,1.13-2.5,1.74s-1.62,1.17-2.41,1.7a10,10,0,0,1-4.48,2l1.72,4.52a16.14,16.14,0,0,0-4.89,2.79,59.89,59.89,0,0,0-5,4.45l1.75,3.9c-1.28,2.31-4,2.5-7.08,2.33s-6.47-.69-9.37.29c0-1.69,1.56-1.69,2.91-1-2.46-1.82-4.43-2.06-6.21-1.46a14.19,14.19,0,0,0-4.93,3.37,20.07,20.07,0,0,1-4.86,3.65,4.7,4.7,0,0,1-5.33-.72c-1.36,1.77-2.63,1.49-3.87.5a0.55,0.55,0,0,0,.37-0.26,2.16,2.16,0,0,0-.66,0c-0.79-.66-1.6-1.43-2.43-2a8.6,8.6,0,0,0,2.09,2.08,12.93,12.93,0,0,0-4.75,2.19l-1.11-4.53a3.89,3.89,0,0,0-.4.15c-1.82-1.59-1.29,2.25-.1,5.64a11.26,11.26,0,0,0-2.32,2.91c-0.46-1.83-1-2.57-1.54-2.77a2.41,2.41,0,0,0-1.8.36c-1.26.57-2.65,1.08-3.58-2.86-0.64,2-2.92,2.53-5.28,3.7a15.13,15.13,0,0,0-1.76,1,9.28,9.28,0,0,0-1.63,1.27,8.82,8.82,0,0,0-2.35,4.37c0-1.06-.46-1.62.58-1.57a9.82,9.82,0,0,0-3-1.31,3.61,3.61,0,0,0-3.19.93l0.07-5.91s-1.42,1.75-2.94,3.48c-0.76.88-1.53,1.73-2.11,2.34l-1,1c-2.1-4.14-2.55-6.36,1-10.14a26.55,26.55,0,0,1-4.35,2.52,12.17,12.17,0,0,1-2.41.67c-1.36.24-2.56,0.63-6.43,3l1.46-3.48c-1-.28-2.66.5-4.15,0.91s-2.78.5-2.77-1.23c-0.41-2.13-1.86-3.79-3.95-5.24a32.38,32.38,0,0,0-3.46-2.29c-0.64-.37-1.3-0.74-2-1.11l-2.05-1.24c-1.39-.86-2.87-1.65-4.26-2.65s-2.78-2-4.08-3.13a22.12,22.12,0,0,1-6-8c-2.5,5.1-2.83,3.26-3.21,1s-0.68-5-3.65-1.88c1.16-2.46.94-4.61,3.83-5.14a6.85,6.85,0,0,1-3.3-2.11,32.5,32.5,0,0,1-1.79-2.74,4.18,4.18,0,0,0-2.14-1.86,7.19,7.19,0,0,0-4.29.16c1.42-2.32,3.63-1.79,4.32-3.32-0.72.07-2.92,0.27-2.21-1.25s2.19-.92,3.63-1.07a5.18,5.18,0,0,0-3.6-1.35,9.79,9.79,0,0,0-4.1,1,49.21,49.21,0,0,0-9,6.06c0.27-2.42,0-3.79-.89-4.45s-2.6-.54-5.29.11c1.19-2.47,2.07-5.51,5.24-3-0.56-1-2-4.11-3.73-6.69s-4-4.49-6.55-2.85c0.87-1.46-1.4-2.83-2.33-2.93-1.23-2.21-1.75-3.51-2.39-4.71a18.86,18.86,0,0,0-1.12-1.87c-0.44-.69-1-1.48-1.73-2.48l-0.16,1.7c-3.65,1-4.55.3-4.86-1-0.16-.67-0.17-1.49-0.32-2.34a4.94,4.94,0,0,0-1.06-2.54l0.72-.26a13.38,13.38,0,0,0-.49-5,2.86,2.86,0,0,0-1.26-1.53c-0.89-.64-1.8-1.35-1-6.73l-4,2.36c-4.64,1.66-4.18-.89-3.21-4.17a35.89,35.89,0,0,0,1.33-5.11c0.19-1.64-.08-3.07-1.45-4l-1.72,2.73c-1.05-.38-1-1.35-0.3-2.63a26.35,26.35,0,0,1,3.59-4.48c3-3.22,6.59-6.45,6.79-8,0.64-.84,1.57.48,2.45,1,3.35-8.55-6,1-8.95-3.79,2.82-1.88,8.19-1.17,7.8-4.73,1-1.21-2.21-2.92-5-5.31s-5.32-5.42-2.71-8.45c-2.23,1.54-4.44,3.17-6.78,1a5,5,0,0,1,.3-3.5c0.5-1.35,1.25-2.8,1.78-4.18a6.46,6.46,0,0,0,.54-3.84c-0.29-1.13-1.23-2.08-3.28-2.72a3.38,3.38,0,0,1,1.85-.92,16.8,16.8,0,0,1-1.76-2.61c-0.56-1-1.14-2.15-1.79-3.24a17.89,17.89,0,0,0-2.2-3.05,7.05,7.05,0,0,0-2.76-2.07c7.84-1.86,5.78-6.4,3.56-10.82a24.23,24.23,0,0,1-1.43-3.2,6.84,6.84,0,0,1-.52-2.73c0.13-1.58,1.42-2.57,5.06-2.45l-0.28-4.71c-0.07-1.18-.15-2.36-0.13-3.25s0-1.48,0-1.48l1.46,0.34c1.43-5.91-1.89-8.3-5.2-10.81,1.09-1.32,2.37-.15,3.12,0,1.92-4.28,2.87-6.6,2.45-8.93a10.78,10.78,0,0,0-1.59-3.74c-0.87-1.41-2.08-3.07-3.52-5.23l4.8,0c-1.18-1.22,1.2-4.14,3.37-7.86,0.55-.93,1.06-1.92,1.54-2.94a18.31,18.31,0,0,0,1.25-3.19,11.22,11.22,0,0,0-.17-7,3.7,3.7,0,0,1,1.86,1.4c-1.77-5.43,3-10.45,6-14.91,1.47-2.24,2.67-4.36,2.49-6.44s-1.74-4.13-5.61-6.22l-1.11-3.79-0.76-2.62c-0.21-.72-0.33-1.19-0.33-1.19-1.87,3.94-3.55,3.12-5.26,1.59s-3.4-3.74-5.27-2.41c0-1.82,1.93-3.57,3.78-4.32s3.63-.5,3.41,1.64l-1,.37c8.09,4.13,6.34-9.32,12.07-7.19a118.3,118.3,0,0,1,10.45-22.92l3-5.44c1-1.8,2.06-3.59,3-5.39,2-3.59,3.77-7.19,5.42-10.85l-7.16-.93,2.52-5c2.06-.74,5.79.26,4,3.84,4.45-.43-0.5-7.45-1.85-8.15,5.6-6.14,6.33,6,7.4,3.8l0.76-3.2-1,.36c-1.62-3.54-4.28-4.93-2.08-9.23,2.48-2.26,4.57.25,5.29-.75,0.45,0.2.82-.08,0.91-1.61l3.35-6.27-6.19.41c-1.23-4,2.95-6-4.09-5.49,10.71-.58,13.87-23,17.82-24.49-1.86-5.69,0-9.67,2.63-14.45-1.59.77-7.58-1-5-5,11,6.75,8.55-5.6,18.48-5.33-6.94.62,4-12.79-6-11.45,2.53-3.16,4.46,1.72,8.42.23-0.74-10.52,11.27-17.45,14.41-28.65-1.46-.84-4.58-0.12-5.86-3.39l10.13-2.15c0.17-2.41-8-5.84-1-7.27-1.53,0-3.83-.1-3.7-1.71,16.62-17.29,12.59-44.83,35.91-59.53-4.23,1.52-3.68-.5-2.83-2.72-1.33,1.09-3.77-1.71-6-2.36l9.66-6.2c-5.05-4.16,3.78-9.57-1.32-12.93l-0.24,3.21c-4.86-6.58-16.74-1.25-24.85-5.5,5.56,7.41-15.78,6-8.21,17.51-2.37.74-2.12-2.47-4.41-2.53,2.81,3.31,2.64,5.71-.68,8.85l-0.69-.83c-3.93,11.19-9.51,14.26-17.25,25.35l4.52,0.93c-1.71,2.36-3.25,2.34-4.82,3.1,4.93,5.77,3.61-7.17,9.29-1.38-9.93-.27-8.3,18.34-18.87,16.44-1.83,4,5.3.94,3.46,4.93l-3.05-.08,2.88,2.49c-1.72,2.39-5.53,2.28-7.76,1.41,0.54-.52.19-2.09,0.31-2.85-4.56,2.06-3.23,10.08-4.74,10.81l3.3-3.15c-2.45,12-11.77,23.89-11.22,36.8l2.3,0.06c0,9.68-5,5.52-7.28,15.13l-0.32-.53a8.65,8.65,0,0,1-.22,7.77c-1.28-3.25-6.3,2.25-7.52-1.81,0,10.48,1.11,5.68,5.78,14.68l-3.82-.1c2,3.27,3.51,4.11,2.38,8.93-1.16-4.87-6.18.65-8-5.05-11.21,6.21,1,17-11.21,16.77,7.08,8.22,8.52-5.94,9.39-2.69,3.8-.73,5.14,6.49,3,9-1.5,2.9-13.71.06-16.79,7.76,0.37-.74-0.29-1.08.07-1.82-3.51,1.87.72,6.9-4.5,8.81,4.62,4.26-2.21,4.44,4.51,7.91l0.65-3.84,0.67-3.82c0.11,4.72,6.77,11.84.11,16.7-1.2-1.08-2.25-3.78-2.72-5.55-2.85,1.07-.16,4.24-3.09,5.36-6.76-3.42,2-9.14-1.53-15.64-3.8.84,1.7,10.2-5,4.91,8.34,7.05-4.38,7.08.92,15.32l-4.06-2c0.33,1.1,1.63,3.61.92,5.09l-4.35-4.93c3,6.1-7.37,6.63-6.37,11.82,1.57-4.39,3-4.38,4.65-3.59s3.39,2.34,5.64,1.13c0.78,6.37-2.51,6.85-6.39,7.33s-8.29,1-9.45,7.43c0-1.9,4.81-5.21,5.82-2-1.74,2-4.41,4.45-7.16,5.08-2,8.4,4.82.3,6.24,4.66-6.16.92,0.73,4.68,1.19,8.73l-4.37-1.44c-5.79,8.35,8.31,5.44,2.26,12.6l-4.95-5.44,0.17,4.84-4.7-2.46c2.14,5.9.83,7.1-2,11.41,3.43-.19,7.83,3,6.78,7.09-3.43,2.09-3.79-2.77-4.78,3.3-2.46-2.1-5.47-4.53-.66-6-1.37-.67-2.39-2.1-3.74-2.78a6.45,6.45,0,0,0-3,4.9c-0.3,1.9-.12,3.8-0.39,4.9a4.15,4.15,0,0,1,1.64-2.09l2,5.17,2,5.11c-2,.95-3.1-0.46-4.14-1.87,0,1.89,1.78,3.6,1.51,6.27-3.47-1.53-7.26-2.24-8-6.39l1,4.69,1.1,4.71c-1.7.2-5.3,3.41-6.41,2-1.58,2.15-.45,5.46.6,8.89s2.19,7.06.21,10a3.94,3.94,0,0,1,1.53,2.65,34.57,34.57,0,0,1-1.83,4.2,41.61,41.61,0,0,0-1.82,4.23,11.52,11.52,0,0,0,.85,9.92s-1.81.83-3.54,1.7l-3.5,1.75c0.53,2.95,2.74,1.71,5,1s4.68-.91,5.58,3.82c1.62,6.71-5.89,2-7.93,4.25a38.13,38.13,0,0,1,5.32,6.87c1.39,2.68,1.67,5.6-1.13,8.61C1173.53,1437.05,1174.56,1435.48,1174.11,1433.57Zm10.2,69.88c-1.32-1.05-4.83-3-2.43-4.67C1187.38,1499.05,1185.13,1500.8,1184.31,1503.44Zm59.14,86.51c-1.81.35-2.25-1.35-2.09-3.77A4.65,4.65,0,0,1,1243.45,1590Zm243.94-37.37a1.22,1.22,0,0,0,0,.26C1484.09,1552.57,1485.29,1552.73,1487.39,1552.59Zm6-1a1.7,1.7,0,0,0-.65-1.83c0.2,1.21-.9,1.89-2.34,2.3C1491.32,1553,1492.36,1553.35,1493.38,1551.63Zm-231.7-282.47-1.54.55C1259.91,1266.88,1260.73,1268,1261.68,1269.16Z" transform="translate(-660.25 -579.13)"/><path d="M1230.9,1585.14a7.16,7.16,0,0,1,1.57-2A1.66,1.66,0,0,0,1230.9,1585.14Z" transform="translate(-660.25 -579.13)"/><path d="M1176.08,1390.29a1.87,1.87,0,0,0,.09-0.2,3.11,3.11,0,0,0-.78-0.35Z" transform="translate(-660.25 -579.13)"/><path d="M1431.13,1627.78a5.38,5.38,0,0,1-3.17-1.2C1428.35,1627.65,1429.26,1628.3,1431.13,1627.78Z" transform="translate(-660.25 -579.13)"/><path d="M1515.77,1530.37l-2.48,2.78c1.37-1,2.4-.47,3.52-0.26C1516.21,1532,1514.85,1531,1515.77,1530.37Z" transform="translate(-660.25 -579.13)"/><path d="M1556.54,1536.94c0-.78.8-0.83,0.8-1.61l-1.58-1.45C1554.24,1535.48,1554.18,1537.88,1556.54,1536.94Z" transform="translate(-660.25 -579.13)"/><path d="M1526.26,1541.93c2.19,3.18,3.53.93,5.26-1a1.06,1.06,0,0,1-.37.23c-1.09-2.5-2-3-2.72-2.57S1526.95,1540.49,1526.26,1541.93Z" transform="translate(-660.25 -579.13)"/><path d="M1531.93,1540.53a4.86,4.86,0,0,1,1.9-1.28C1532.93,1537.25,1532.81,1539.34,1531.93,1540.53Z" transform="translate(-660.25 -579.13)"/><path d="M1498.55,1545.93c1.54,0.3-1.69-4.71-.34-3.65C1497.06,1537.3,1494,1551.37,1498.55,1545.93Z" transform="translate(-660.25 -579.13)"/><polygon points="874.27 972.72 871.04 969.08 871.75 973.13 874.27 972.72"/><path d="M1515,1558.88l4.25-.84a1.71,1.71,0,0,1,.18-2C1517.17,1557.17,1514.27,1557.69,1515,1558.88Z" transform="translate(-660.25 -579.13)"/><path d="M1519.47,1556.08c1.2-.56,2.26-1.26,2.51-2.3A9.14,9.14,0,0,0,1519.47,1556.08Z" transform="translate(-660.25 -579.13)"/><polygon points="870.11 976.82 868.54 976.57 865.83 977.71 870.11 976.82"/><path d="M1475.43,1579.09l-3.35,3.33c0.36,1.66,1.92,2,3.1.6C1475.61,1581.51,1476.79,1580.17,1475.43,1579.09Z" transform="translate(-660.25 -579.13)"/><path d="M1493.64,1584.22c-1.55-.3-2.12-1.2-3.47-2.26l2.66,5.29Z" transform="translate(-660.25 -579.13)"/><path d="M1482.65,1591.63c0.37,1.66-3.59,7.24,1.3,4.22C1483.59,1594.2,1487,1590.87,1482.65,1591.63Z" transform="translate(-660.25 -579.13)"/><polygon points="757.86 1036.56 758.9 1036.04 755.02 1027.15 757.86 1036.56"/><path d="M1361.19,1653.83c6.5,1.76.94-6.08,6.78-3.77,1.15-2.43-4.75-1.87-3.48-4C1361.11,1648.9,1359,1647.54,1361.19,1653.83Z" transform="translate(-660.25 -579.13)"/><path d="M1364.49,1646.06a12.06,12.06,0,0,0,1.68-1.66A6,6,0,0,0,1364.49,1646.06Z" transform="translate(-660.25 -579.13)"/><polygon points="691 500.03 694.25 497.7 690.37 498.41 691 500.03"/><path d="M1347.35,1070.2l6,1.77-4.28-4.16C1349,1068.63,1348.87,1070.22,1347.35,1070.2Z" transform="translate(-660.25 -579.13)"/><path d="M1175.35,1517.27l1.51-.16c1.35-1.07,1.19-2,.88-3.81Z" transform="translate(-660.25 -579.13)"/><polygon points="509.47 884.5 509.42 885.43 514.86 883.32 509.47 884.5"/><path d="M1162.87,1419.7c-0.37,1.78.71,4,.34,5.74C1162.5,1421.45,1169.86,1419.74,1162.87,1419.7Z" transform="translate(-660.25 -579.13)"/><path d="M1941.16,1613.74c-0.23.56,3.64-.4,4.36-0.47C1944.44,1612.5,1940.15,1614,1941.16,1613.74Z" transform="translate(-660.25 -579.13)"/><path d="M1930.18,1610.18l1.47-.71s-1,.27-2,0.6-1.92.69-1.92,0.69,0.59-.17,1.19-0.31S1930.18,1610.18,1930.18,1610.18Z" transform="translate(-660.25 -579.13)"/><path d="M1926.66,1605.64c-2.1,2.7-1.66,2.75-.71,2.56s2.42-.58,1.78.55l-1.13,1.07,2.31-1.49,2.35-1.43a9.71,9.71,0,0,0-3.2-.19C1927,1606.72,1926.33,1606.64,1926.66,1605.64Z" transform="translate(-660.25 -579.13)"/><path d="M1932.57,1591.65c-1.22,2.38-2.15,1.28.49,1.35,0.08-.3.15-0.46,0.22-0.67A1.78,1.78,0,0,1,1932.57,1591.65Z" transform="translate(-660.25 -579.13)"/><path d="M1933.28,1592.33c0.94,0.44.75-2.2,0,0h0Z" transform="translate(-660.25 -579.13)"/><path d="M1928.84,1591.36l1.07-.77,1.1-.74c0.58-1.48-.26-2.32.65-3.12C1929.86,1587.24,1929.47,1588.8,1928.84,1591.36Z" transform="translate(-660.25 -579.13)"/><path d="M1925.7,1595.33l0.9-.67C1926.82,1594,1926.78,1593.77,1925.7,1595.33Z" transform="translate(-660.25 -579.13)"/><path d="M1928.59,1593.33l-1,.65-1,.68c-0.37,1-1.41,3,.8-0.44C1926.37,1596,1927.45,1594.34,1928.59,1593.33Z" transform="translate(-660.25 -579.13)"/><path d="M1928.63,1594.54a10.28,10.28,0,0,1-.41,2.16,4.8,4.8,0,0,1-1.8,2.06,3.46,3.46,0,0,0,2.76-1.88C1929.81,1595.87,1929.78,1594.68,1928.63,1594.54Z" transform="translate(-660.25 -579.13)"/><path d="M1921.78,1610.71l-0.54.86-0.56.85,0.89-.72,0.91-.7c-0.46.34-.25-0.11-0.14-0.48S1922.48,1609.9,1921.78,1610.71Z" transform="translate(-660.25 -579.13)"/><path d="M1923.77,1585.48c-0.47,1.37-.79,3.79-1.29,5.58l0.58-.69,0.6-.68A10.38,10.38,0,0,1,1923.77,1585.48Z" transform="translate(-660.25 -579.13)"/><path d="M1922.48,1591.06l-0.84,1-0.8,1.06C1921.55,1593.67,1922,1592.6,1922.48,1591.06Z" transform="translate(-660.25 -579.13)"/><path d="M1922.24,1602.05s0.85-1,1.78-2,1.91-1.94,1.91-1.94-1.07.92-2,1.91-1.89,2-1.89,2Z" transform="translate(-660.25 -579.13)"/><path d="M1919.55,1584.28l0.61-1.59,0.63-1.59s-0.53,1.19-1,2.39-1,2.4-1,2.4Z" transform="translate(-660.25 -579.13)"/><path d="M1916.81,1584.48c0.78-2.7-.16-4.74.53-6.38-0.93.39-1.73,2.74-2.38,4.85C1915.59,1581.77,1916.22,1582.12,1916.81,1584.48Z" transform="translate(-660.25 -579.13)"/><path d="M1914,1586c0.28-.66.61-1.84,1-3.08A11.73,11.73,0,0,0,1914,1586Z" transform="translate(-660.25 -579.13)"/><path d="M1919.45,1592.06c0.12-.87.5-3.13,0.15-4.18l-0.22,2-0.24,2Z" transform="translate(-660.25 -579.13)"/><path d="M1919.12,1592.06l0-.13a5.72,5.72,0,0,1-.67-0.36A7.66,7.66,0,0,1,1919.12,1592.06Z" transform="translate(-660.25 -579.13)"/><path d="M1919.54,1592.1l-0.09,0C1919.4,1592.46,1919.39,1592.59,1919.54,1592.1Z" transform="translate(-660.25 -579.13)"/><path d="M1921.72,1597.81a29.56,29.56,0,0,0-1.91,3.2,15.13,15.13,0,0,0-1.27,4.36c0.57-1.28.94-2.41,1.36-3.61A18.82,18.82,0,0,1,1921.72,1597.81Z" transform="translate(-660.25 -579.13)"/><path d="M1918.79,1597.16l0.29,0.56,0.28,0.56a18,18,0,0,1,1.08-3.62s-0.44.61-.85,1.24S1918.79,1597.16,1918.79,1597.16Z" transform="translate(-660.25 -579.13)"/><polygon points="1257.86 1019.19 1258.55 1018.03 1258.32 1017.62 1257.86 1019.19"/><path d="M1915.33,1589.9c-0.52,1.74-.9,1.87-1.35,2.14a2,2,0,0,0,1.31,1.3C1915.46,1592.08,1915.9,1589.81,1915.33,1589.9Z" transform="translate(-660.25 -579.13)"/><path d="M1917.17,1591.26c0,0.09-.08.13-0.12,0.22C1917.05,1591.83,1917.08,1591.95,1917.17,1591.26Z" transform="translate(-660.25 -579.13)"/><path d="M1909.78,1592.11l0.13,0.73,0-.7Z" transform="translate(-660.25 -579.13)"/><path d="M1915.29,1594.11c0.28,0.82.58-.14,0.94-1.37a1.42,1.42,0,0,1-1,.6C1915.2,1593.91,1915.16,1594.29,1915.29,1594.11Z" transform="translate(-660.25 -579.13)"/><path d="M1912.55,1587.9c0.21,0.85.43,1.58,0.65,2.25C1913,1588.85,1912.62,1586.84,1912.55,1587.9Z" transform="translate(-660.25 -579.13)"/><path d="M1917.07,1590.35a1.3,1.3,0,0,1,.09-0.17C1917.14,1589.29,1917.1,1589.72,1917.07,1590.35Z" transform="translate(-660.25 -579.13)"/><path d="M1917.07,1590.35a16.11,16.11,0,0,0-.83,2.4,5.2,5.2,0,0,0,.81-1.26C1917,1591.19,1917.05,1590.75,1917.07,1590.35Z" transform="translate(-660.25 -579.13)"/><path d="M1911.86,1618.17a39.87,39.87,0,0,1-.38-4.52c0-.84.2-0.72,0.46,1.29a172.47,172.47,0,0,0-2-22.09,19.88,19.88,0,0,1-.17,5.44c0.22,1,.67,2.18,1,3.53a16.94,16.94,0,0,1,.49,4.6c-0.37,2-.56-1.29-1.12-3.24a45.12,45.12,0,0,1,.5,6,64.28,64.28,0,0,0,.88,7.65l-0.07-1.21,0-1.22C1911.53,1615.49,1911.68,1617.2,1911.86,1618.17Z" transform="translate(-660.25 -579.13)"/><path d="M1911.35,1593.12l0.14-.24,0.15-.24c-0.4-.65-0.68-2.13-1.4-5a14.31,14.31,0,0,0-.37,4.54l0.79,0.2,0.77,0.21Z" transform="translate(-660.25 -579.13)"/><path d="M1913.1,1592.63c-0.35,4.1-.91,5.85-0.54,10.29,0.64-.28.5-3.42,1-5.19-0.65.49-.55-0.08-0.39-1.06a6.4,6.4,0,0,0-.09-3.57,2,2,0,0,1,.87-1.06,14,14,0,0,1-.78-1.9l0,0.26h0v0.06c0.06,0.51.08,0.83,0,.53a0.16,0.16,0,0,1,0,.08c0,0.57-.06,1.07-0.1,1.55a1.38,1.38,0,0,1,.1-1.55l0-.61v-0.05s-0.43.55-.82,1.11-0.76,1.13-.76,1.13C1912,1593.21,1912.37,1593.09,1913.1,1592.63Z" transform="translate(-660.25 -579.13)"/><path d="M1915.35,1613.62c0.09-.35.18-0.63,0.27-0.92A2.52,2.52,0,0,0,1915.35,1613.62Z" transform="translate(-660.25 -579.13)"/><path d="M1915.81,1611.17c0.2-.54.71-2.1,0.77-1.64a25.85,25.85,0,0,1-1,3.17,18.3,18.3,0,0,0,1.5-4.71l-0.23.51c0-.72.28-2.36,0.48-3.89a29.82,29.82,0,0,1,.51-3.21C1917.13,1605,1916.6,1607.63,1915.81,1611.17Z" transform="translate(-660.25 -579.13)"/><path d="M1915.36,1602.92s-0.3.47-.57,0.94-0.53,1-.53,1l0,1.79v1.79l0.22-2.12C1914.82,1607.16,1915.07,1604.54,1915.36,1602.92Z" transform="translate(-660.25 -579.13)"/><path d="M1909.45,1590.09l-0.2-4.34-0.13,3.09-0.06,3.08,0.19-.92Z" transform="translate(-660.25 -579.13)"/><path d="M1907.83,1590.8l-0.47-3.74-0.08,1.16-0.06,1.16Z" transform="translate(-660.25 -579.13)"/><path d="M1910.3,1629.39v0Z" transform="translate(-660.25 -579.13)"/><path d="M1910.19,1629.62h0Z" transform="translate(-660.25 -579.13)"/><path d="M1880.22,1618.79c-3.55-.14-9-0.27-4.83.24l4.11,0.42C1878.82,1619,1879.31,1618.85,1880.22,1618.79Z" transform="translate(-660.25 -579.13)"/><path d="M1905.18,1630.29l1.21-.34-3.87.84Z" transform="translate(-660.25 -579.13)"/><path d="M1921.8,1626.23l-2.56.77Z" transform="translate(-660.25 -579.13)"/><path d="M1910.56,1627.87v0Z" transform="translate(-660.25 -579.13)"/><path d="M1892.77,1598.81c-1.41-.94-2.21-1.16-2.64-1.05C1892.21,1599.1,1894.77,1601.62,1892.77,1598.81Z" transform="translate(-660.25 -579.13)"/><path d="M1897.87,1655.86a7.7,7.7,0,0,0,1.35-2.15A7,7,0,0,0,1897.87,1655.86Z" transform="translate(-660.25 -579.13)"/><path d="M1888.91,1598.86c0.36,0.23.57,0.32,0.88,0.51-0.18-.78-0.23-1.48.33-1.61C1888.6,1596.74,1887.35,1596.39,1888.91,1598.86Z" transform="translate(-660.25 -579.13)"/><path d="M1909.82,1628.93h0Z" transform="translate(-660.25 -579.13)"/><path d="M1929.17,1609.19a1.17,1.17,0,0,1,.82.36C1930.09,1609.24,1929.88,1609.07,1929.17,1609.19Z" transform="translate(-660.25 -579.13)"/><path d="M1900.79,1590.68c0.26-.38-0.09-0.45,0,0h0Z" transform="translate(-660.25 -579.13)"/><path d="M1907.14,1605.8c0.09,0.46.23,1,.5,2C1907.37,1606.79,1907.21,1606.18,1907.14,1605.8Z" transform="translate(-660.25 -579.13)"/><path d="M1906,1618.16h0C1906.72,1618.59,1906.59,1618.51,1906,1618.16Z" transform="translate(-660.25 -579.13)"/><path d="M1901.92,1592.28a4.92,4.92,0,0,0-.83-1A6.73,6.73,0,0,0,1901.92,1592.28Z" transform="translate(-660.25 -579.13)"/><path d="M1901.23,1590.45a4.46,4.46,0,0,0,.43.28C1901.49,1590.06,1901.31,1589.66,1901.23,1590.45Z" transform="translate(-660.25 -579.13)"/><path d="M1900.39,1591.06a0.62,0.62,0,0,1,.7.21,2,2,0,0,1-.29-0.59A2.16,2.16,0,0,1,1900.39,1591.06Z" transform="translate(-660.25 -579.13)"/><path d="M1911.42,1629.51h0Z" transform="translate(-660.25 -579.13)"/><polygon points="1260.68 1045.7 1260.66 1045.7 1260.68 1045.7 1260.68 1045.7"/><path d="M1921.75,1624.82h-0.82l-10.51.27,7.67-.17Z" transform="translate(-660.25 -579.13)"/><path d="M1910.51,1628.65l0,0.1c0-.13,0-0.21,0-0.12s-0.1.42-.1,0.42l0,0.07v0l-0.09.26,0,0-0.05.11h0l-0.07.13h0l0,0.07h0l0,0.06,9.88,1.46-0.44.12c1.57-.6,3.13-1.13,4.26-1.46l-13.7-.11,0-.07,0,0.07,19.36-1.89c-1.41.42-3.88,1.16-.22-0.37l1.62-.34c6.89-2.55,4.32-1.82,8.58-3.52-2.25.81-10.75,4.21-13.87,5,0.9-.39,1.31-0.62-1.2.09,4.35-1.5,3.24-1.26,2.95-1.3l5.77-2c-1.71.43-4.65,1.43-7.28,2.22,0.51-.36,5-1.89,8.75-3.17,0.84-.55-7.13,2.56-8.32,2.61,2.15-.93-0.25-0.27-3.82.56,2-.77,3.57-1.09,5.21-1.66l-4.68,1.32c0.1-.07,1.53-0.5,2.25-0.71-1.83.46-5.82,1.79-7.46,2.09-3.22.95-.9,0.13,1.31-0.64s4.32-1.5.62-.56c1.65-.52,3.6-1,5.87-1.66l-10.11,2.31,3.82-1.21c-4.39,1.29-9.69,2.48-14.06,3.29-2.13.61-4,1.15-4.87,1.43l-1.64.17-1.65.15c1-.29,3-0.73,5.5-1.26l-1.44.26c2.15-.68,5.6-1.4,8.93-2.12l-3.62,1c3.62-.79,7.61-1.73,11.07-2.61-0.68.16-1.28,0.27-1.62,0.32,1-.22,1.85-0.43,2.44-0.59a21.79,21.79,0,0,0-2.21.47l6.59-1.65-2.63.62,2-.62,2-.59c-6.71,1.37-16.61,3.18-19.49,3.05,4.93-.74,8-1.41,13.83-2.44-3.07.59-2.4,0.55-1.12,0.38s3.16-.48,2.55-0.29c0.63-.2,3.39-0.74,4.36-0.93l-2.81.46-2.82.41c4.75-.87,3.54-0.71,5.51-1.08-9.4,1.68-6.28.92-9.2,1.24a50.71,50.71,0,0,1,5.66-.73c3.54-.61.77-0.18-2.14,0.2s-6,.73-3,0.25c0.08,0-.4.11,1.22-0.1-2.84.29-.61-0.17,2.16-0.44h0.07c0.56-.13.57-0.2-0.58-0.2s-3.42.08-7.47,0.24l11.4-.54s-6.81.37-13.63,0.42S1895,1625,1895,1625l25.89-.2c-0.19,0-.43,0-0.85,0h-3.36c-2.47,0-4.9,0-5.22,0,3.88,0,4.91,0,5.81,0,0.57,0,3,.06,1.95,0h0.08l-3.8-.14c-2.87-.11-5.51-0.27-5.33-0.31l8.8,0.43h-0.11l-2.15-.12c-2.67-.17-5.34-0.43-5.34-0.43,1,0.1,3.23.26,5.63,0.43l1.36,0.1h-0.14c0.07,0-.54,0-0.71-0.08l0.27,0-0.42-.06h-0.06l-1.21-.15-2.8-.39c-3.86-.55-7.83-1.27-7.51-1.44,1.09,0.22,4.44.81,7.69,1.36l2.38,0.4,0.56,0.1,0.27,0h0l-0.14,0-2.4-.46c-2.75-.54-5.94-1.21-9.08-1.95-6.27-1.45-12.3-3.25-14.23-4.24l3.07,0.64-1.64-.78-1.63-.82c3.9,1.39,10,3.48,16,5.14,3,0.84,6,1.59,8.61,2.18l0.89,0.2h0.05l0.11,0-0.25,0,0.16,0-0.23,0-0.23-.06-0.32-.1s0.5,0.15.49,0.14l-0.44-.11c-3.49-.92-6-1.81-5.43-1.75l5.36,1.72-0.18-.06,0.08,0-0.27-.1h0l-6.62-2.84c-6.67-2.84-13.13-5.61-15.6-6.82,0.24,0.06,2,.49,4,1.16a59,59,0,0,1,6,2.34c2.6,1.21,5.6,2.85,8.55,4.35l3.56,1.79h0l-4.59-1.88,0.1-.07,0.46-.33h0l-1-.67-2.06-1.39-3.69-2.55a14.42,14.42,0,0,1-2.14-1.66c1.37,0.92,3.21,2,4,2.59a4.59,4.59,0,0,1,1.84.94,7.73,7.73,0,0,0,1.29,1c0.54,0.57,1.14,1.21,1.82,2l0.63,0.71h0l0.05,0.06h0l0,0-0.27-.32-0.28-.35,0.69,0.84h0l0-.05,0,0,0.09,0.12,0.07,0.1,0,0-0.23-.3-0.5-.69c-1.71-2.36-1.94-2.53-1.53-1.9,0.21,0.31.58,0.82,1,1.35l0.65,0.81,0.32,0.38,0.05,0.06h0l-1.71-2-1.93-2.3c-1.26-1.53-2.45-3-3.5-4.49a30.54,30.54,0,0,1-4.21-7.44c-0.38-2.14,3.2,4.12,2.68,3.09,0.91,0.25-.68-2.89-1.82-5.65s-1.92-5.08.1-2.83a52.49,52.49,0,0,1,3.46,6.64c1,2.16,1.88,4.15,2.72,5.8,0.26,1-.21.27-0.82-0.57s-1.34-1.86-1.43-1.69l0.76,1,0.73,1c0.68,1.56,1.18,2.79.31,1.57,1.28,1.91,1.58,2,1.93,2s0.71,0,1.62,1.94c-0.55-1.62-1-3.36-1.73-5.28l0.06,0.74a28.51,28.51,0,0,1-1.5-4.4,9.91,9.91,0,0,0-1-2.84,37.13,37.13,0,0,1-.72-4.54c-0.08-1.25.14-1.9,0.82-.88l1.62,5.62c-0.43-1.66-1.32-3.25-1-1.48-0.23-1.28.56,0.53,1.11,1.79s0.88,1.91.17-1.85l-0.68-1.92-0.73-1.91c-0.1-1.48-.3-3.78-0.26-5.52s0.3-2.89.88-2.06c-0.68-2.81-.72-2.63-0.79-2.58s-0.18,0-1.18-3.25c1.09,4.06.48,4.09-.06,4.18s-1,.22.45,4.41c-1.22-3.74-1.74-4.47-2.23-5s-1-1-2.45-4c0.6,1.83,1.42,3.41.32,2.77,0.14,0.55.28,1.26,0.36,1.67l-0.1-.12,0.11,0.2c0.06,0.29.07,0.34,0,.07a16.32,16.32,0,0,1,1.28,2.66c1,4.33,0,4.52.55,6.76-0.67-.73-0.66-2.11-1.6-4l0.38,1.69,0.41,1.69a44.9,44.9,0,0,0-2.54-4.86,7.41,7.41,0,0,1-1.28-4l-1.07.27c-1.58-1.92-2.93-2.32-2.59-.46-0.46-.29-0.21.93,0,1.81s0.46,1.42-.17-0.15c0,0-.07.81-0.1,1.6s0,1.58,0,1.58l-0.59-.89c-0.89.26-.59,2.16-0.77,3.43s-0.79,1.73-4.21-.39l0.21,0.91a3.32,3.32,0,0,1-.08,1,1.66,1.66,0,0,1-1.51,1.26l-1.51-1.08-1.53-1.06c0.06,0.92-1.28,1.12-2.34,1.55a1.79,1.79,0,0,0-1.1.82,0.32,0.32,0,0,0,0,.26l0.21,0.17c0.19,0.14.47,0.34,0.87,0.61-4.26-2.58-4.85-2.66-4.59-2.19,0.13,0.24.48,0.62,0.69,0.9l0,0.05h0l-1.28,2.21h0v0.26a1,1,0,0,1,0,.33,0.56,0.56,0,0,1-.48.37l4.32,2.16c-0.59.59,0.33,1.89,1.78,3.45l4,1.56c1.5,1,.67,1-0.57,1.11s-2.87.13-2.84,0.75c-1.54-.55-1-0.72,0-0.61-4.83-.79-3.38.58-1.53,1.76s4.06,2.27.52,2.14c1.48,0.57.92,0.66-.17,0.68a0.37,0.37,0,0,0-.21-0.11,0.1,0.1,0,0,0-.07.11c-0.75,0-1.61,0-2.31,0,1,0,1.91.06,2.32,0a2.82,2.82,0,0,0,1.53,1.12l-4.56-.5a0.89,0.89,0,0,0,.12.1c-1.73.14,2.12,0.54,5.56,0.84a21.85,21.85,0,0,0,2.69.73c-3.69-.34-3.09-0.06-2.55.2s1,0.49-2.93.31c3.82,0.54,2.77,1.76,10.88,2.16a4.62,4.62,0,0,1-1.62-.11c-0.93.2-1.86,0.45,0.42,0.71l-5.84,0,3.92,0.33,3.92,0.26a50,50,0,0,1-10.11.23c3.45,0.45,4.12.54,4.76,0.68a27.94,27.94,0,0,0,4.72.38l-3.77.16c0.16,0.26,5.22.26,2.12,0.61-3.56.51-3.74,1.21-3.84,2s-0.09,1.54-3.26,2.81c5.45-1.09,4.24-.73,2.75-0.28s-3.29,1,.94.25a48.24,48.24,0,0,1-6.27,1.25c1.33,0.1.36,0.55,0,.89s-0.23.53,3.36-.05c-2.56.65-3.79,0.7-5.3,1.1,0.57-.07,2.28-0.29.76,0.12a17.26,17.26,0,0,1-3.32.53c0.6,0.64,8.49-1.17,15.89-2.9-3.44,1.1-2.9,1.16,2,.13-2.39.69-4.86,1.51-5.82,1.38-0.31.27-3.21,2.13,2.67,0.54-1.47.47-.37,0.38,0.32,0.23-0.24.5-.75,0.68-0.09,0.9l0.92-.39c7.09-1.93,1.66-.17,2.59-0.12l-0.72.21c-4.86,2.24,2.51-.49-3.05,2l4.34-1.43c4.69-1.46,3.35-.9,1.31,0s-4.79,2-2.95,1.59l2.43-.95c3.25-.89-12.5,4.78-13.58,5.42a9.51,9.51,0,0,1-1.95.5c-5.29,2.46,5.7-1.84,7.15-1.89-3,1.12-7.8,2.57-8.27,3-2.14.89,7.5-1.88,5.74-.87l8.32,10.51a4.89,4.89,0,0,1-.37,1.44,19.61,19.61,0,0,1,3.66-5.78c0.55-.19-0.21,2.09-0.39,3.68s0.15,2.44,2.13-1a14.49,14.49,0,0,1-.68,1.83c1.44-1.57,3.19-2.3,4.82-6.26-2.4,7.52-.72,6.05.53,4.24s2.21-3.92.86,3.24l1-.22,0.93-.27-0.23,1.47c1.09,1.09,1.83-2.35,2.31-5.83a13.74,13.74,0,0,1-.12,3.11c1.36,3,2,2.36,2.59-5l0.43,4.7c0.07-1.38.7,0.44,1.61,1.84s2.11,2.38,2.31-.48a13.83,13.83,0,0,1,.26,2.11c0.17-1.46.64-1.44,1.32-.89s1.54,1.64,2.32,2.33c1.55,1.41,2.74,1.34-.2-6.74,0,0-.14-1.09-0.34-2.16s-0.42-2.13-.42-2.13c-0.81-.37-1.47-2.12-2.19-4a45.36,45.36,0,0,0-2.22-5.29c-0.1-.51.56,0.62,1.32,2a12.86,12.86,0,0,1,1.56,3.4l-0.43-.75c1.81,4.1,2.46,4.68,3,4.89s1,0.06,2.45,2.73c1.1-.86,2.87-0.69,4.87-0.71,0.5,0,1,0,1.51-.07l0.75-.08a2.61,2.61,0,0,0,.79-0.19,8.31,8.31,0,0,0,3.09-2l-2.92-1.93-2.87-2s0.3-.2.51-0.31l0.26,0c1.35,0.9,4.43,3.18,4.06,3.2,3.23,2.27-2.4-2.31-3.61-3.23,2.54,1.32,6.39,5,6.61,5l-0.3-.47-0.68-.45-3.05-2.52-0.55-.47-0.11-.1-0.05,0,0,0h0l0.51-.73h0l-0.15-.21a0.42,0.42,0,0,1,0-.62c1.48,0.26,3.82,2,4.18,1.92,0.42,0.26.67,0.3,0.38-.25l0.65-.53c0.33-.27.63-0.55,0.63-0.55l-2.58-1-2.56-1.05c-2.12-1.76.75-.86-5-3.21,4.41,1.9,5.76,1.13,6.15.11s-0.08-2.22,1.41-2.08c-3.72-1.7-3.52-2.17-2.94-2.88-1.16,0-7.27-.93-6.46-1.25,6.31,1,7.72.9,8.71,0.55s1.52-.83,6.12-0.94c-6.09.23-1.43-2.39-10.1-1.58,1-.52,4.79,0,7.78-0.53-2.5-.75-1.72-1.51-0.62-2.58s2.55-2.38,1.49-3.24a45.1,45.1,0,0,1-6.6,1.34s2-.66,4-1.4,3.93-1.56,3.93-1.56a27.91,27.91,0,0,0-4.37.74c-1.56.3-2.33,0.4,0.35-.77a16.55,16.55,0,0,1-3.9,1.18c1.71-1.38,2-2.51,1.58-3.36a6.17,6.17,0,0,0-2.14-2.05,2.58,2.58,0,0,1-1.26-2.57,9.36,9.36,0,0,1,.8-2.59c0.24-.55.54-1.17,0.9-1.88l0.59-1.12c0.21-.39.36-0.89,0.56-1.37-1.71,2.91-2.39,2.65-2.91,2.3-0.27.83-3,2.9-4.51,4.55a33.12,33.12,0,0,0,1.44-3c0.66-1.54,1.16-3.19,1.16-3.19a14.5,14.5,0,0,1-1.34,1.28,5.12,5.12,0,0,1-.48.35,3.14,3.14,0,0,0-.3.28c-0.31.3-.4,0.29-0.48,0.27s-0.3-.09-2.17,2.26l0.81-.74c-2.29,2.73-4.65,5.89-7.16,9.27l-3.86,5.2-1,1.33-0.51.67,0,0.06h0s0.07,0.07,0,.07h-0.27c-0.13,0-.29-0.1-0.34,0h0l-0.16.13h0a3.34,3.34,0,0,1-.62.39h0l-0.09,0,0.09,0a3.11,3.11,0,0,1-.37.16h-0.08l-0.06,0h0a2.1,2.1,0,0,1,.24,0h0a2.55,2.55,0,0,1,.33,0h0l0.17,0h0l0.27,0.05h0l0.07,0,0.48,0.14,0.8,0.25-1.2-.37a1.79,1.79,0,0,1,.29.1l0.15,0.06-0.12,0h0l0.26,0.11c1.2,0.5,1.89.87,1.44,0.68l-0.55-.25-1-.46,0.06,0,0.12,0.06h0l0.07,0,0,0h0l0.24-.34h0l0,0-0.07.05-0.27.21,0.36-.29-0.32.25,0,0s-0.09,0,.1.15a4.42,4.42,0,0,1,.51.53c0.08,0.11.05,0.15-.11,0.09l-0.34-.17c-0.13-.09-0.33-0.27-0.48-0.4,0,0,0,.08,0,0l0.11-.09-0.14.1v-0.05s0,0.06,0,.05l0.1-.07,0.4-.32-0.31.24-0.13.1a0.31,0.31,0,0,1-.07,0v-0.07a1.36,1.36,0,0,1,0-.3h0a1.37,1.37,0,0,1,0-.16l0,0.11,0-.12a0.14,0.14,0,0,0-.05-0.07l-0.11-.12,0.1,0.11a4,4,0,0,1-.3-0.37l0.06,0.08-0.1-.14,0,0-0.1-.16h0l-0.11-.21,0,0.06,0-.08v0a1.57,1.57,0,0,1-.08-0.18l0-.06,0,0,0,0.06v0l0-.11v0l0-.06h0v0h0v0.13c0,0.07,0,.15,0,0.28v0.25l-0.05.34Zm15,0.06c0.93-.26,3.78-1.12,1.24-0.19C1921.74,1630.19,1924.1,1629.3,1925.5,1628.71Zm-11.83-.93c1.49-.3.77-0.08-0.91,0.39C1912.38,1628.2,1912.53,1628.1,1913.67,1627.77Zm-15-32.14,0.07,0.21C1897.4,1594.48,1897.89,1595,1898.62,1595.63Zm1.86,1.34a7.87,7.87,0,0,0-.72-1.78c0.39,1.1.21,1.27-.19,1.1C1900.15,1597.34,1900.61,1598,1900.48,1597Zm33.61,45.72-1.14-.43C1932.05,1641.17,1933,1641.89,1934.09,1642.69Z" transform="translate(-660.25 -579.13)"/><path d="M1919.88,1626.71l-2.42.63C1918.21,1627.16,1919.08,1626.94,1919.88,1626.71Z" transform="translate(-660.25 -579.13)"/><polygon points="1250.31 1048.75 1250.31 1048.74 1250.31 1048.74 1250.31 1048.75"/><path d="M1914.92,1624.12h0Z" transform="translate(-660.25 -579.13)"/><path d="M1904,1587.59l-0.27.68-0.25.68c0.33-.31.71,0.63,1.06,1.3C1904.26,1589.19,1903.74,1587.72,1904,1587.59Z" transform="translate(-660.25 -579.13)"/><path d="M1912.31,1615c0-.56.06-0.06,0.08-0.63l-0.06-2.14A6.82,6.82,0,0,0,1912.31,1615Z" transform="translate(-660.25 -579.13)"/><path d="M1907.93,1602.36c0.85,3.77.83,2.44,1,1.67,0,0,0,.05-0.06,0C1908,1598.69,1907.92,1600.54,1907.93,1602.36Z" transform="translate(-660.25 -579.13)"/><path d="M1909,1603.88c0.07-.2.15-0.32,0.28-0.15C1909,1601.58,1909.08,1603.31,1909,1603.88Z" transform="translate(-660.25 -579.13)"/><path d="M1900.8,1594c0.58,0.85-1.63-4.67-.92-3.25-0.72-2.36-.65-0.8-0.26,1S1900.67,1595.48,1900.8,1594Z" transform="translate(-660.25 -579.13)"/><polygon points="1250.47 1035.66 1249.45 1030.99 1250.14 1034.78 1250.47 1035.66"/><path d="M1908.43,1611.78l0.36,0.58,0.34,0.58a9.91,9.91,0,0,1-.39-1.59C1908.51,1611.26,1908,1610.44,1908.43,1611.78Z" transform="translate(-660.25 -579.13)"/><path d="M1908.75,1611.35c0.13,0.05.2-.07,0.05-0.85A1.24,1.24,0,0,0,1908.75,1611.35Z" transform="translate(-660.25 -579.13)"/><path d="M1910.72,1616.25l-0.3-1-0.25-.3,0.28,0.63Z" transform="translate(-660.25 -579.13)"/><path d="M1904.63,1612.64l0.23,0.67,0.25,0.67c1,1.33,1.61,2.08,1.32,1.49A29,29,0,0,0,1904.63,1612.64Z" transform="translate(-660.25 -579.13)"/><path d="M1912.11,1623.37l-1.83-3.13,1.49,2.56,0.5,0.86h0l0,0a0.09,0.09,0,1,1,0,0Z" transform="translate(-660.25 -579.13)"/><path d="M1912,1623.26l0,0Z" transform="translate(-660.25 -579.13)"/><polygon points="1246.66 1041.27 1246.62 1041.19 1237.83 1037.07 1246.66 1041.27"/><path d="M1917.12,1624.66l-0.39-.06,0.17,0Z" transform="translate(-660.25 -579.13)"/><path d="M1916.9,1624.63l-0.11,0Z" transform="translate(-660.25 -579.13)"/><polygon points="1270.34 1024.39 1271.43 1022.67 1269.52 1025.32 1270.34 1024.39"/><path d="M1925.84,1608.95l3.77-4.9-3.54,4.33C1926.28,1608.19,1926.68,1607.83,1925.84,1608.95Z" transform="translate(-660.25 -579.13)"/><path d="M1937.14,1624.23l-1.41.47a6.92,6.92,0,0,0-1.84.76Z" transform="translate(-660.25 -579.13)"/><polygon points="1250.09 1050.18 1250.08 1050.19 1250.09 1050.16 1250.09 1050.18"/><path d="M1910.55,1628.36v0Z" transform="translate(-660.25 -579.13)"/><rect class="cls-1" x="15" y="15" width="1431.82" height="1431.82"/></svg>