<svg id="Calque_1" data-name="Calque 1" xmlns="http://www.w3.org/2000/svg" viewBox="0 0 31.71 31.7"><defs><style>.cls-1{fill:#010002;}</style></defs><title>wp_cercle</title><path class="cls-1" d="M31.19,0H11.42A5.94,5.94,0,0,0,5.48,5.91s0,0,0,.06V25.73a5.94,5.94,0,0,0,5.94,5.94H31.19a5.94,5.94,0,0,0,6-5.88V6a5.94,5.94,0,0,0-5.88-6H31.19ZM9.13,15.84A11.55,11.55,0,0,1,10.19,11L16,26.49A11.86,11.86,0,0,1,9.13,15.84ZM21.32,27.71a12.49,12.49,0,0,1-3.44-.48l3.82-10,3.59,9.62L25.38,27A12.43,12.43,0,0,1,21.32,27.71ZM23,10.27a9.54,9.54,0,0,0,1.39-.11,0.5,0.5,0,0,0-.08-1s-2,.15-3.25.15-3.21-.15-3.21-0.15a0.5,0.5,0,0,0-.08,1s0.62,0.08,1.28.11l1.9,5.07L18,23.14,13.85,10.27a9.77,9.77,0,0,0,1.4-.11,0.5,0.5,0,0,0-.08-1s-2,.15-3.25.15H11.13A12.4,12.4,0,0,1,29.55,7.08H29.39a2.08,2.08,0,0,0-2,2.11A5.49,5.49,0,0,0,28.54,12a4.2,4.2,0,0,1,.79,2.7,14,14,0,0,1-.93,3.84l-1.22,4ZM27.45,26.1l3.74-10.48a10.93,10.93,0,0,0,.92-4.25A8.72,8.72,0,0,0,32,10.15a11.55,11.55,0,0,1,1.5,5.7A11.82,11.82,0,0,1,27.45,26.1Z" transform="translate(-5.48 0.03)"/></svg>